# Blender 4.3.0
# www.blender.org
mtllib Exit.mtl
o Text
v 1.386000 0.542000 0.000000
v 1.219000 0.379000 0.000000
v 1.219000 0.369000 0.000000
v 1.297000 0.369000 0.000000
v 1.297000 0.132000 0.000000
v 1.298020 0.112210 0.000000
v 1.301079 0.093431 0.000000
v 1.306172 0.075797 0.000000
v 1.313296 0.059444 0.000000
v 1.322448 0.044509 0.000000
v 1.333625 0.031125 0.000000
v 1.346822 0.019429 0.000000
v 1.362037 0.009556 0.000000
v 1.379266 0.001641 0.000000
v 1.398504 -0.004181 -0.000000
v 1.419750 -0.007773 -0.000000
v 1.443000 -0.009000 -0.000000
v 1.450625 -0.008734 -0.000000
v 1.458917 -0.007958 -0.000000
v 1.467750 -0.006703 -0.000000
v 1.477000 -0.005000 -0.000000
v 1.486542 -0.002880 -0.000000
v 1.496250 -0.000375 -0.000000
v 1.506000 0.002484 0.000000
v 1.515667 0.005667 0.000000
v 1.525125 0.009141 0.000000
v 1.534250 0.012875 0.000000
v 1.542917 0.016839 0.000000
v 1.551000 0.021000 0.000000
v 1.551000 0.104000 0.000000
v 1.542061 0.098729 0.000000
v 1.533241 0.093917 0.000000
v 1.524531 0.089563 0.000000
v 1.515926 0.085667 0.000000
v 1.507418 0.082229 0.000000
v 1.499000 0.079250 0.000000
v 1.490665 0.076729 0.000000
v 1.482407 0.074667 0.000000
v 1.474219 0.073063 0.000000
v 1.466092 0.071917 0.000000
v 1.458022 0.071229 0.000000
v 1.450000 0.071000 0.000000
v 1.443279 0.071326 0.000000
v 1.436232 0.072356 0.000000
v 1.429031 0.074172 0.000000
v 1.421852 0.076852 0.000000
v 1.414867 0.080476 0.000000
v 1.408250 0.085125 0.000000
v 1.402175 0.090878 0.000000
v 1.396815 0.097815 0.000000
v 1.392344 0.106016 0.000000
v 1.388935 0.115560 0.000000
v 1.386763 0.126528 0.000000
v 1.386000 0.139000 0.000000
v 1.386000 0.369000 0.000000
v 1.528000 0.369000 0.000000
v 1.528000 0.449000 0.000000
v 1.386000 0.449000 0.000000
v 1.163000 0.585000 0.000000
v 1.162511 0.592135 0.000000
v 1.161088 0.598995 0.000000
v 1.158797 0.605516 0.000000
v 1.155704 0.611630 0.000000
v 1.151875 0.617271 0.000000
v 1.147375 0.622375 0.000000
v 1.142272 0.626875 0.000000
v 1.136630 0.630704 0.000000
v 1.130516 0.633797 0.000000
v 1.123995 0.636088 0.000000
v 1.117135 0.637511 0.000000
v 1.110000 0.638000 0.000000
v 1.102865 0.637511 0.000000
v 1.096005 0.636088 0.000000
v 1.089484 0.633797 0.000000
v 1.083370 0.630704 0.000000
v 1.077729 0.626874 0.000000
v 1.072625 0.622375 0.000000
v 1.068126 0.617271 0.000000
v 1.064296 0.611630 0.000000
v 1.061203 0.605516 0.000000
v 1.058912 0.598995 0.000000
v 1.057489 0.592135 0.000000
v 1.057000 0.585000 0.000000
v 1.057489 0.577865 0.000000
v 1.058912 0.571005 0.000000
v 1.061203 0.564484 0.000000
v 1.064296 0.558370 0.000000
v 1.068125 0.552729 0.000000
v 1.072625 0.547625 0.000000
v 1.077729 0.543126 0.000000
v 1.083370 0.539296 0.000000
v 1.089484 0.536203 0.000000
v 1.096005 0.533912 0.000000
v 1.102865 0.532489 0.000000
v 1.110000 0.532000 0.000000
v 1.117135 0.532489 0.000000
v 1.123995 0.533912 0.000000
v 1.130516 0.536203 0.000000
v 1.136630 0.539296 0.000000
v 1.142271 0.543126 0.000000
v 1.147375 0.547625 0.000000
v 1.151874 0.552729 0.000000
v 1.155704 0.558370 0.000000
v 1.158797 0.564484 0.000000
v 1.161088 0.571005 0.000000
v 1.162511 0.577865 0.000000
v 1.154000 0.449000 0.000000
v 1.065000 0.449000 0.000000
v 1.065000 0.000000 0.000000
v 1.154000 0.000000 0.000000
v 0.987000 0.449000 0.000000
v 0.873000 0.449000 0.000000
v 0.745000 0.295000 0.000000
v 0.612000 0.449000 0.000000
v 0.500000 0.449000 0.000000
v 0.689000 0.228000 0.000000
v 0.500000 0.000000 0.000000
v 0.612000 0.000000 0.000000
v 0.745000 0.161000 0.000000
v 0.886000 0.000000 0.000000
v 1.000000 0.000000 0.000000
v 0.802000 0.228000 0.000000
v 0.462000 0.682000 0.000000
v 0.075000 0.682000 0.000000
v 0.075000 0.000000 0.000000
v 0.471000 0.000000 0.000000
v 0.471000 0.088000 0.000000
v 0.173000 0.088000 0.000000
v 0.173000 0.300000 0.000000
v 0.452000 0.300000 0.000000
v 0.452000 0.388000 0.000000
v 0.173000 0.388000 0.000000
v 0.173000 0.594000 0.000000
v 0.462000 0.594000 0.000000
v 1.386000 0.542000 -0.050000
v 1.219000 0.379000 -0.050000
v 1.219000 0.369000 -0.050000
v 1.297000 0.369000 -0.050000
v 1.297000 0.132000 -0.050000
v 1.298020 0.112210 -0.050000
v 1.301079 0.093431 -0.050000
v 1.306172 0.075797 -0.050000
v 1.313296 0.059444 -0.050000
v 1.322448 0.044509 -0.050000
v 1.333625 0.031125 -0.050000
v 1.346822 0.019429 -0.050000
v 1.362037 0.009556 -0.050000
v 1.379266 0.001641 -0.050000
v 1.398504 -0.004181 -0.050000
v 1.419750 -0.007773 -0.050000
v 1.443000 -0.009000 -0.050000
v 1.450625 -0.008734 -0.050000
v 1.458917 -0.007958 -0.050000
v 1.467750 -0.006703 -0.050000
v 1.477000 -0.005000 -0.050000
v 1.486542 -0.002880 -0.050000
v 1.496250 -0.000375 -0.050000
v 1.506000 0.002484 -0.050000
v 1.515667 0.005667 -0.050000
v 1.525125 0.009141 -0.050000
v 1.534250 0.012875 -0.050000
v 1.542917 0.016839 -0.050000
v 1.551000 0.021000 -0.050000
v 1.551000 0.104000 -0.050000
v 1.542061 0.098729 -0.050000
v 1.533241 0.093917 -0.050000
v 1.524531 0.089563 -0.050000
v 1.515926 0.085667 -0.050000
v 1.507418 0.082229 -0.050000
v 1.499000 0.079250 -0.050000
v 1.490665 0.076729 -0.050000
v 1.482407 0.074667 -0.050000
v 1.474219 0.073063 -0.050000
v 1.466092 0.071917 -0.050000
v 1.458022 0.071229 -0.050000
v 1.450000 0.071000 -0.050000
v 1.443279 0.071326 -0.050000
v 1.436232 0.072356 -0.050000
v 1.429031 0.074172 -0.050000
v 1.421852 0.076852 -0.050000
v 1.414867 0.080476 -0.050000
v 1.408250 0.085125 -0.050000
v 1.402175 0.090878 -0.050000
v 1.396815 0.097815 -0.050000
v 1.392344 0.106016 -0.050000
v 1.388935 0.115560 -0.050000
v 1.386763 0.126528 -0.050000
v 1.386000 0.139000 -0.050000
v 1.386000 0.369000 -0.050000
v 1.528000 0.369000 -0.050000
v 1.528000 0.449000 -0.050000
v 1.386000 0.449000 -0.050000
v 1.163000 0.585000 -0.050000
v 1.162511 0.592135 -0.050000
v 1.161088 0.598995 -0.050000
v 1.158797 0.605516 -0.050000
v 1.155704 0.611630 -0.050000
v 1.151875 0.617271 -0.050000
v 1.147375 0.622375 -0.050000
v 1.142272 0.626875 -0.050000
v 1.136630 0.630704 -0.050000
v 1.130516 0.633797 -0.050000
v 1.123995 0.636088 -0.050000
v 1.117135 0.637511 -0.050000
v 1.110000 0.638000 -0.050000
v 1.102865 0.637511 -0.050000
v 1.096005 0.636088 -0.050000
v 1.089484 0.633797 -0.050000
v 1.083370 0.630704 -0.050000
v 1.077729 0.626874 -0.050000
v 1.072625 0.622375 -0.050000
v 1.068126 0.617271 -0.050000
v 1.064296 0.611630 -0.050000
v 1.061203 0.605516 -0.050000
v 1.058912 0.598995 -0.050000
v 1.057489 0.592135 -0.050000
v 1.057000 0.585000 -0.050000
v 1.057489 0.577865 -0.050000
v 1.058912 0.571005 -0.050000
v 1.061203 0.564484 -0.050000
v 1.064296 0.558370 -0.050000
v 1.068125 0.552729 -0.050000
v 1.072625 0.547625 -0.050000
v 1.077729 0.543126 -0.050000
v 1.083370 0.539296 -0.050000
v 1.089484 0.536203 -0.050000
v 1.096005 0.533912 -0.050000
v 1.102865 0.532489 -0.050000
v 1.110000 0.532000 -0.050000
v 1.117135 0.532489 -0.050000
v 1.123995 0.533912 -0.050000
v 1.130516 0.536203 -0.050000
v 1.136630 0.539296 -0.050000
v 1.142271 0.543126 -0.050000
v 1.147375 0.547625 -0.050000
v 1.151874 0.552729 -0.050000
v 1.155704 0.558370 -0.050000
v 1.158797 0.564484 -0.050000
v 1.161088 0.571005 -0.050000
v 1.162511 0.577865 -0.050000
v 1.154000 0.449000 -0.050000
v 1.065000 0.449000 -0.050000
v 1.065000 0.000000 -0.050000
v 1.154000 0.000000 -0.050000
v 0.987000 0.449000 -0.050000
v 0.873000 0.449000 -0.050000
v 0.745000 0.295000 -0.050000
v 0.612000 0.449000 -0.050000
v 0.500000 0.449000 -0.050000
v 0.689000 0.228000 -0.050000
v 0.500000 0.000000 -0.050000
v 0.612000 0.000000 -0.050000
v 0.745000 0.161000 -0.050000
v 0.886000 0.000000 -0.050000
v 1.000000 0.000000 -0.050000
v 0.802000 0.228000 -0.050000
v 0.462000 0.682000 -0.050000
v 0.075000 0.682000 -0.050000
v 0.075000 0.000000 -0.050000
v 0.471000 0.000000 -0.050000
v 0.471000 0.088000 -0.050000
v 0.173000 0.088000 -0.050000
v 0.173000 0.300000 -0.050000
v 0.452000 0.300000 -0.050000
v 0.452000 0.388000 -0.050000
v 0.173000 0.388000 -0.050000
v 0.173000 0.594000 -0.050000
v 0.462000 0.594000 -0.050000
vn -0.0000 -0.0000 1.0000
vn -0.0000 -0.0000 -1.0000
vn 0.6613 0.7501 -0.0000
vn 0.6613 -0.7501 -0.0000
vn -0.4472 0.8945 -0.0000
vn -0.6613 0.7501 -0.0000
vn 0.3788 -0.9255 -0.0000
vn -0.6613 -0.7501 -0.0000
vn -0.4175 -0.9087 -0.0000
vn -0.9607 -0.2775 -0.0000
vn -0.0000 1.0000 -0.0000
vn 0.7501 0.6613 -0.0000
vn -0.0000 -1.0000 -0.0000
vn 0.5616 -0.8274 -0.0000
vn -0.7501 0.6613 -0.0000
vn 1.0000 -0.0000 -0.0000
vn 0.3448 -0.9387 -0.0000
vn -0.5616 -0.8274 -0.0000
vn 0.6876 0.7261 -0.0000
vn -0.4124 0.9110 -0.0000
vn 0.3127 -0.9499 -0.0000
vn 0.8274 0.5616 -0.0000
vn 0.4514 -0.8923 -0.0000
vn -0.3746 0.9272 -0.0000
vn -0.8274 0.5616 -0.0000
vn 0.2814 -0.9596 -0.0000
vn -0.4514 -0.8923 -0.0000
vn -0.2896 -0.9571 -0.0000
vn 0.5749 0.8182 -0.0000
vn 0.8923 0.4514 -0.0000
vn 0.3315 -0.9435 -0.0000
vn -0.3336 0.9427 -0.0000
vn -0.8923 0.4514 -0.0000
vn 0.2499 -0.9683 -0.0000
vn -0.3315 -0.9435 -0.0000
vn 0.2169 -0.9762 -0.0000
vn 0.4606 0.8876 -0.0000
vn 0.9434 0.3315 -0.0000
vn -0.6985 0.7156 -0.0000
vn -0.1667 -0.9860 -0.0000
vn 0.2031 -0.9792 -0.0000
vn -0.2895 0.9572 -0.0000
vn -0.9434 0.3315 -0.0000
vn -0.2031 -0.9792 -0.0000
vn 0.1811 -0.9835 -0.0000
vn -0.0684 -0.9977 -0.0000
vn 0.3497 0.9369 -0.0000
vn 0.9792 0.2031 -0.0000
vn 0.0684 -0.9977 -0.0000
vn -0.2423 0.9702 -0.0000
vn -0.9792 0.2031 -0.0000
vn 0.1407 -0.9901 -0.0000
vn -0.7600 -0.6499 -0.0000
vn -0.0527 -0.9986 -0.0000
vn -0.9168 -0.3994 -0.0000
vn -1.0000 -0.0000 -0.0000
vn 0.9977 0.0684 -0.0000
vn 0.0348 -0.9994 -0.0000
vn -0.1923 0.9813 -0.0000
vn -0.9977 0.0684 -0.0000
vn 0.0932 -0.9956 -0.0000
vn 0.7568 0.6536 -0.0000
vn -0.7690 0.6392 -0.0000
vn -0.9977 -0.0684 -0.0000
vn 0.2445 0.9697 -0.0000
vn -0.1396 0.9902 -0.0000
vn 0.9977 -0.0684 -0.0000
vn 0.7668 -0.6419 -0.0000
vn -0.0684 0.9977 -0.0000
vn 0.1447 0.9895 -0.0000
vn 0.9792 -0.2031 -0.0000
vn -0.7699 0.6382 -0.0000
vn -0.0849 0.9964 -0.0000
vn -0.9792 -0.2031 -0.0000
vn 0.0684 0.9977 -0.0000
vn 0.9981 0.0610 -0.0000
vn -0.9987 -0.0515 -0.0000
vn 0.2031 0.9792 -0.0000
vn 0.0484 0.9988 -0.0000
vn 0.9434 -0.3315 -0.0000
vn -0.2031 0.9792 -0.0000
vn -0.0286 0.9996 -0.0000
vn -0.9434 -0.3315 -0.0000
vn 0.7550 0.6557 -0.0000
vn 0.9809 0.1943 -0.0000
vn 0.3315 0.9435 -0.0000
vn 0.7710 -0.6369 -0.0000
vn -0.8527 -0.5225 -0.0000
vn 0.8923 -0.4514 -0.0000
vn 0.9418 0.3363 -0.0000
vn -0.3315 0.9435 -0.0000
vn -0.7523 -0.6588 -0.0000
vn -0.8923 -0.4514 -0.0000
vn -0.9870 -0.1607 -0.0000
vn -0.7676 -0.6410 -0.0000
vn 0.4514 0.8923 -0.0000
vn -0.6633 -0.7484 -0.0000
vn 0.8274 -0.5616 -0.0000
vn 0.8780 0.4787 -0.0000
vn -0.4514 0.8923 -0.0000
vn -0.8274 -0.5616 -0.0000
vn -0.5079 0.8614 -0.0000
vn 0.4577 -0.8891 -0.0000
vn 0.5616 0.8274 -0.0000
vn -0.5444 -0.8389 -0.0000
vn 0.7501 -0.6613 -0.0000
vn -0.4789 0.8778 -0.0000
vn -0.5616 0.8274 -0.0000
vn -0.7501 -0.6613 -0.0000
vn 0.4159 -0.9094 -0.0000
vn 0.7913 0.6114 -0.0000
vn -0.4472 0.8944 -0.0000
vn 0.5749 0.8183 -0.0000
vn 0.9435 0.3315 -0.0000
vn -0.9435 0.3315 -0.0000
vn -0.1922 0.9813 -0.0000
vn 0.9435 -0.3315 -0.0000
vn -0.9435 -0.3315 -0.0000
vn -0.8526 -0.5225 -0.0000
vn -0.8923 -0.4515 -0.0000
vt 0.017544 0.000000
vt 1.000000 0.000000
vt 0.000000 0.000000
vt 0.982456 0.000000
vt 0.964912 0.000000
vt 0.035088 0.000000
vt 0.052632 0.000000
vt 0.070175 0.000000
vt 0.947368 0.000000
vt 0.929825 0.000000
vt 0.912281 0.000000
vt 0.087719 0.000000
vt 0.894737 0.000000
vt 0.877193 0.000000
vt 0.105263 0.000000
vt 0.859649 0.000000
vt 0.526316 0.000000
vt 0.491228 0.000000
vt 0.508772 0.000000
vt 0.543860 0.000000
vt 0.842105 0.000000
vt 0.561404 0.000000
vt 0.122807 0.000000
vt 0.824561 0.000000
vt 0.578947 0.000000
vt 0.596491 0.000000
vt 0.807018 0.000000
vt 0.614035 0.000000
vt 0.789474 0.000000
vt 0.631579 0.000000
vt 0.771930 0.000000
vt 0.649123 0.000000
vt 0.140351 0.000000
vt 0.666667 0.000000
vt 0.754386 0.000000
vt 0.684211 0.000000
vt 0.736842 0.000000
vt 0.701754 0.000000
vt 0.719298 0.000000
vt 0.157895 0.000000
vt 0.175439 0.000000
vt 0.192982 0.000000
vt 0.473684 0.000000
vt 0.210526 0.000000
vt 0.456140 0.000000
vt 0.438596 0.000000
vt 0.228070 0.000000
vt 0.421053 0.000000
vt 0.403509 0.000000
vt 0.385965 0.000000
vt 0.245614 0.000000
vt 0.368421 0.000000
vt 0.350877 0.000000
vt 0.263158 0.000000
vt 0.333333 0.000000
vt 0.315789 0.000000
vt 0.280702 0.000000
vt 0.298246 0.000000
vt 0.980392 0.000000
vt 0.941176 0.000000
vt 0.960784 0.000000
vt 0.254902 0.000000
vt 0.215686 0.000000
vt 0.235294 0.000000
vt 0.196078 0.000000
vt 0.274510 0.000000
vt 0.176471 0.000000
vt 0.294118 0.000000
vt 0.156863 0.000000
vt 0.313726 0.000000
vt 0.137255 0.000000
vt 0.117647 0.000000
vt 0.352941 0.000000
vt 0.098039 0.000000
vt 0.372549 0.000000
vt 0.078431 0.000000
vt 0.392157 0.000000
vt 0.058824 0.000000
vt 0.411765 0.000000
vt 0.039216 0.000000
vt 0.431373 0.000000
vt 0.019608 0.000000
vt 0.450980 0.000000
vt 0.470588 0.000000
vt 0.490196 0.000000
vt 0.921569 0.000000
vt 0.901961 0.000000
vt 0.509804 0.000000
vt 0.882353 0.000000
vt 0.529412 0.000000
vt 0.862745 0.000000
vt 0.549020 0.000000
vt 0.843137 0.000000
vt 0.568627 0.000000
vt 0.823529 0.000000
vt 0.588235 0.000000
vt 0.803922 0.000000
vt 0.607843 0.000000
vt 0.784314 0.000000
vt 0.627451 0.000000
vt 0.764706 0.000000
vt 0.647059 0.000000
vt 0.745098 0.000000
vt 0.725490 0.000000
vt 0.686275 0.000000
vt 0.705882 0.000000
vt 0.454545 0.000000
vt 0.272727 0.000000
vt 0.363636 0.000000
vt 0.181818 0.000000
vt 0.090909 0.000000
vt 0.545455 0.000000
vt 0.727273 0.000000
vt 0.909091 0.000000
vt 0.636364 0.000000
vt 0.818182 0.000000
s 0
f 2/1/1 58/2/1 1/3/1
f 2/1/1 57/4/1 58/2/1
f 2/1/1 56/5/1 57/4/1
f 3/6/1 56/5/1 2/1/1
f 4/7/1 56/5/1 3/6/1
f 5/8/1 55/9/1 4/7/1
f 55/9/1 56/5/1 4/7/1
f 5/8/1 54/10/1 55/9/1
f 5/8/1 53/11/1 54/10/1
f 6/12/1 53/11/1 5/8/1
f 6/12/1 52/13/1 53/11/1
f 6/12/1 51/14/1 52/13/1
f 7/15/1 51/14/1 6/12/1
f 7/15/1 50/16/1 51/14/1
f 31/17/1 29/18/1 30/19/1
f 32/20/1 29/18/1 31/17/1
f 7/15/1 49/21/1 50/16/1
f 33/22/1 29/18/1 32/20/1
f 8/23/1 49/21/1 7/15/1
f 8/23/1 48/24/1 49/21/1
f 34/25/1 29/18/1 33/22/1
f 35/26/1 29/18/1 34/25/1
f 8/23/1 47/27/1 48/24/1
f 36/28/1 29/18/1 35/26/1
f 8/23/1 46/29/1 47/27/1
f 37/30/1 29/18/1 36/28/1
f 8/23/1 45/31/1 46/29/1
f 38/32/1 29/18/1 37/30/1
f 9/33/1 45/31/1 8/23/1
f 39/34/1 29/18/1 38/32/1
f 9/33/1 44/35/1 45/31/1
f 40/36/1 29/18/1 39/34/1
f 9/33/1 43/37/1 44/35/1
f 41/38/1 29/18/1 40/36/1
f 9/33/1 42/39/1 43/37/1
f 42/39/1 29/18/1 41/38/1
f 9/33/1 29/18/1 42/39/1
f 10/40/1 29/18/1 9/33/1
f 11/41/1 29/18/1 10/40/1
f 12/42/1 29/18/1 11/41/1
f 12/42/1 28/43/1 29/18/1
f 13/44/1 28/43/1 12/42/1
f 13/44/1 27/45/1 28/43/1
f 13/44/1 26/46/1 27/45/1
f 14/47/1 26/46/1 13/44/1
f 14/47/1 25/48/1 26/46/1
f 14/47/1 24/49/1 25/48/1
f 14/47/1 23/50/1 24/49/1
f 15/51/1 23/50/1 14/47/1
f 15/51/1 22/52/1 23/50/1
f 15/51/1 21/53/1 22/52/1
f 16/54/1 21/53/1 15/51/1
f 16/54/1 20/55/1 21/53/1
f 16/54/1 19/56/1 20/55/1
f 17/57/1 19/56/1 16/54/1
f 17/57/1 18/58/1 19/56/1
f 109/59/1 107/60/1 108/61/1
f 109/59/1 110/2/1 107/60/1
f 72/62/1 70/63/1 71/64/1
f 72/62/1 69/65/1 70/63/1
f 73/66/1 69/65/1 72/62/1
f 73/66/1 68/67/1 69/65/1
f 74/68/1 68/67/1 73/66/1
f 74/68/1 67/69/1 68/67/1
f 75/70/1 67/69/1 74/68/1
f 75/70/1 66/71/1 67/69/1
f 76/55/1 66/71/1 75/70/1
f 76/55/1 65/72/1 66/71/1
f 77/73/1 65/72/1 76/55/1
f 77/73/1 64/74/1 65/72/1
f 78/75/1 64/74/1 77/73/1
f 78/75/1 63/76/1 64/74/1
f 79/77/1 63/76/1 78/75/1
f 79/77/1 62/78/1 63/76/1
f 80/79/1 62/78/1 79/77/1
f 80/79/1 61/80/1 62/78/1
f 81/81/1 61/80/1 80/79/1
f 81/81/1 60/82/1 61/80/1
f 82/83/1 60/82/1 81/81/1
f 82/83/1 59/3/1 60/82/1
f 83/84/1 59/3/1 82/83/1
f 84/85/1 59/3/1 83/84/1
f 84/85/1 106/86/1 59/3/1
f 84/85/1 105/87/1 106/86/1
f 85/88/1 105/87/1 84/85/1
f 85/88/1 104/89/1 105/87/1
f 86/90/1 104/89/1 85/88/1
f 86/90/1 103/91/1 104/89/1
f 87/92/1 103/91/1 86/90/1
f 87/92/1 102/93/1 103/91/1
f 88/94/1 102/93/1 87/92/1
f 88/94/1 101/95/1 102/93/1
f 89/96/1 101/95/1 88/94/1
f 89/96/1 100/97/1 101/95/1
f 90/98/1 100/97/1 89/96/1
f 90/98/1 99/99/1 100/97/1
f 91/100/1 99/99/1 90/98/1
f 91/100/1 98/101/1 99/99/1
f 92/102/1 98/101/1 91/100/1
f 92/102/1 97/103/1 98/101/1
f 93/34/1 97/103/1 92/102/1
f 93/34/1 96/104/1 97/103/1
f 94/105/1 96/104/1 93/34/1
f 94/105/1 95/106/1 96/104/1
f 116/107/1 114/108/1 115/109/1
f 116/107/1 113/110/1 114/108/1
f 113/110/1 111/3/1 112/111/1
f 113/110/1 122/2/1 111/3/1
f 116/107/1 122/2/1 113/110/1
f 117/112/1 122/2/1 116/107/1
f 117/112/1 119/113/1 122/2/1
f 119/113/1 121/114/1 122/2/1
f 117/112/1 118/115/1 119/113/1
f 120/116/1 121/114/1 119/113/1
f 125/110/1 133/114/1 124/111/1
f 133/114/1 123/3/1 124/111/1
f 133/114/1 134/2/1 123/3/1
f 125/110/1 132/116/1 133/114/1
f 125/110/1 129/112/1 132/116/1
f 129/112/1 131/113/1 132/116/1
f 129/112/1 130/115/1 131/113/1
f 125/110/1 128/107/1 129/112/1
f 125/110/1 127/109/1 128/107/1
f 125/110/1 126/108/1 127/109/1
f 136/1/2 135/3/2 192/2/2
f 136/1/2 192/2/2 191/4/2
f 136/1/2 191/4/2 190/5/2
f 137/6/2 136/1/2 190/5/2
f 138/7/1 137/6/1 190/5/1
f 139/8/2 138/7/2 189/9/2
f 189/9/1 138/7/1 190/5/1
f 139/8/2 189/9/2 188/10/2
f 139/8/2 188/10/2 187/11/2
f 140/12/2 139/8/2 187/11/2
f 140/12/2 187/11/2 186/13/2
f 140/12/2 186/13/2 185/14/2
f 141/15/2 140/12/2 185/14/2
f 141/15/2 185/14/2 184/16/2
f 165/17/2 164/19/2 163/18/2
f 166/20/2 165/17/2 163/18/2
f 141/15/2 184/16/2 183/21/2
f 167/22/2 166/20/2 163/18/2
f 142/23/2 141/15/2 183/21/2
f 142/23/2 183/21/2 182/24/2
f 168/25/2 167/22/2 163/18/2
f 169/26/2 168/25/2 163/18/2
f 142/23/2 182/24/2 181/27/2
f 170/28/2 169/26/2 163/18/2
f 142/23/2 181/27/2 180/29/2
f 171/30/2 170/28/2 163/18/2
f 142/23/2 180/29/2 179/31/2
f 172/32/2 171/30/2 163/18/2
f 143/33/2 142/23/2 179/31/2
f 173/34/2 172/32/2 163/18/2
f 143/33/2 179/31/2 178/35/2
f 174/36/2 173/34/2 163/18/2
f 143/33/2 178/35/2 177/37/2
f 175/38/2 174/36/2 163/18/2
f 143/33/2 177/37/2 176/39/2
f 176/39/2 175/38/2 163/18/2
f 143/33/2 176/39/2 163/18/2
f 144/40/2 143/33/2 163/18/2
f 145/41/2 144/40/2 163/18/2
f 146/42/2 145/41/2 163/18/2
f 146/42/2 163/18/2 162/43/2
f 147/44/2 146/42/2 162/43/2
f 147/44/2 162/43/2 161/45/2
f 147/44/2 161/45/2 160/46/2
f 148/47/2 147/44/2 160/46/2
f 148/47/2 160/46/2 159/48/2
f 148/47/2 159/48/2 158/49/2
f 148/47/2 158/49/2 157/50/2
f 149/51/2 148/47/2 157/50/2
f 149/51/2 157/50/2 156/52/2
f 149/51/2 156/52/2 155/53/2
f 150/54/2 149/51/2 155/53/2
f 150/54/2 155/53/2 154/55/2
f 150/54/2 154/55/2 153/56/2
f 151/57/2 150/54/2 153/56/2
f 151/57/2 153/56/2 152/58/2
f 243/59/2 242/61/2 241/60/2
f 243/59/2 241/60/2 244/2/2
f 206/62/2 205/64/2 204/63/2
f 206/62/2 204/63/2 203/65/2
f 207/66/2 206/62/2 203/65/2
f 207/66/2 203/65/2 202/67/2
f 208/68/2 207/66/2 202/67/2
f 208/68/2 202/67/2 201/69/2
f 209/70/2 208/68/2 201/69/2
f 209/70/2 201/69/2 200/71/2
f 210/55/2 209/70/2 200/71/2
f 210/55/2 200/71/2 199/72/2
f 211/73/2 210/55/2 199/72/2
f 211/73/2 199/72/2 198/74/2
f 212/75/2 211/73/2 198/74/2
f 212/75/2 198/74/2 197/76/2
f 213/77/2 212/75/2 197/76/2
f 213/77/2 197/76/2 196/78/2
f 214/79/2 213/77/2 196/78/2
f 214/79/2 196/78/2 195/80/2
f 215/81/2 214/79/2 195/80/2
f 215/81/2 195/80/2 194/82/2
f 216/83/2 215/81/2 194/82/2
f 216/83/2 194/82/2 193/3/2
f 217/84/2 216/83/2 193/3/2
f 218/85/2 217/84/2 193/3/2
f 218/85/2 193/3/2 240/86/2
f 218/85/2 240/86/2 239/87/2
f 219/88/2 218/85/2 239/87/2
f 219/88/2 239/87/2 238/89/2
f 220/90/2 219/88/2 238/89/2
f 220/90/2 238/89/2 237/91/2
f 221/92/2 220/90/2 237/91/2
f 221/92/2 237/91/2 236/93/2
f 222/94/2 221/92/2 236/93/2
f 222/94/2 236/93/2 235/95/2
f 223/96/2 222/94/2 235/95/2
f 223/96/2 235/95/2 234/97/2
f 224/98/2 223/96/2 234/97/2
f 224/98/2 234/97/2 233/99/2
f 225/100/2 224/98/2 233/99/2
f 225/100/2 233/99/2 232/101/2
f 226/102/2 225/100/2 232/101/2
f 226/102/2 232/101/2 231/103/2
f 227/34/2 226/102/2 231/103/2
f 227/34/2 231/103/2 230/104/2
f 228/105/2 227/34/2 230/104/2
f 228/105/2 230/104/2 229/106/2
f 250/107/2 249/109/2 248/108/2
f 250/107/2 248/108/2 247/110/2
f 247/110/2 246/111/2 245/3/2
f 247/110/2 245/3/2 256/2/2
f 250/107/2 247/110/2 256/2/2
f 251/112/2 250/107/2 256/2/2
f 251/112/2 256/2/2 253/113/2
f 253/113/2 256/2/2 255/114/2
f 251/112/2 253/113/2 252/115/2
f 254/116/2 253/113/2 255/114/2
f 259/110/2 258/111/2 267/114/2
f 267/114/2 258/111/2 257/3/2
f 267/114/2 257/3/2 268/2/2
f 259/110/2 267/114/2 266/116/2
f 259/110/2 266/116/2 263/112/2
f 263/112/2 266/116/2 265/113/2
f 263/112/2 265/113/2 264/115/2
f 259/110/2 263/112/2 262/107/2
f 259/110/2 262/107/2 261/109/2
f 259/110/2 261/109/2 260/108/2
f 66/71/3 65/72/3 199/72/3
f 101/95/4 100/97/4 234/97/4
f 33/22/5 32/20/5 166/20/5
f 77/73/6 76/55/6 210/55/6
f 27/45/7 26/46/7 160/46/7
f 90/98/8 89/96/8 223/96/8
f 14/47/9 13/44/9 147/44/9
f 8/23/10 7/15/10 141/15/10
f 132/116/11 131/113/11 265/113/11
f 65/72/12 64/74/12 198/74/12
f 130/115/13 129/112/13 263/112/13
f 100/97/14 99/99/14 233/99/14
f 78/75/15 77/73/15 211/73/15
f 131/113/16 130/115/16 264/115/16
f 26/46/17 25/48/17 159/48/17
f 91/100/18 90/98/18 224/98/18
f 49/21/19 48/24/19 182/24/19
f 34/25/20 33/22/20 167/22/20
f 129/112/16 128/107/16 262/107/16
f 25/48/21 24/49/21 158/49/21
f 64/74/22 63/76/22 197/76/22
f 99/99/23 98/101/23 232/101/23
f 35/26/24 34/25/24 168/25/24
f 79/77/25 78/75/25 212/75/25
f 128/107/11 127/109/11 261/109/11
f 24/49/26 23/50/26 157/50/26
f 92/102/27 91/100/27 225/100/27
f 126/108/13 125/110/13 259/110/13
f 15/51/28 14/47/28 148/47/28
f 127/109/16 126/108/16 260/108/16
f 48/24/29 47/27/29 181/27/29
f 63/76/30 62/78/30 196/78/30
f 98/101/31 97/103/31 231/103/31
f 36/28/32 35/26/32 169/26/32
f 80/79/33 79/77/33 213/77/33
f 23/50/34 22/52/34 156/52/34
f 93/34/35 92/102/35 226/102/35
f 22/52/36 21/53/36 155/53/36
f 47/27/37 46/29/37 180/29/37
f 62/78/38 61/80/38 195/80/38
f 2/1/39 1/3/39 135/3/39
f 16/54/40 15/51/40 149/51/40
f 97/103/41 96/104/41 230/104/41
f 37/30/42 36/28/42 170/28/42
f 81/81/43 80/79/43 214/79/43
f 94/105/44 93/34/44 227/34/44
f 1/3/16 58/2/16 192/2/16
f 21/53/45 20/55/45 154/55/45
f 95/106/46 94/105/46 228/105/46
f 46/29/47 45/31/47 179/31/47
f 61/80/48 60/82/48 194/82/48
f 58/2/11 57/4/11 191/4/11
f 96/104/49 95/106/49 229/106/49
f 38/32/50 37/30/50 171/30/50
f 82/83/51 81/81/51 215/81/51
f 20/55/52 19/56/52 153/56/52
f 116/107/53 115/109/53 249/109/53
f 57/4/16 56/5/16 190/5/16
f 17/57/54 16/54/54 150/54/54
f 9/33/55 8/23/55 142/23/55
f 3/6/56 2/1/56 136/1/56
f 115/109/11 114/108/11 248/108/11
f 60/82/57 59/3/57 193/3/57
f 18/58/58 17/57/58 151/57/58
f 39/34/59 38/32/59 172/32/59
f 83/84/60 82/83/60 216/83/60
f 4/7/13 3/6/13 137/6/13
f 19/56/61 18/58/61 152/58/61
f 114/108/62 113/110/62 247/110/62
f 109/59/56 108/61/56 242/61/56
f 113/110/63 112/111/63 246/111/63
f 84/85/64 83/84/64 217/84/64
f 5/8/56 4/7/56 138/7/56
f 45/31/65 44/35/65 178/35/65
f 108/61/11 107/60/11 241/60/11
f 112/111/11 111/3/11 245/3/11
f 40/36/66 39/34/66 173/34/66
f 110/2/13 109/59/13 243/59/13
f 59/3/67 106/86/67 240/86/67
f 56/5/13 55/9/13 189/9/13
f 107/60/16 110/2/16 244/2/16
f 111/3/68 122/2/68 256/2/68
f 72/62/69 71/64/69 205/64/69
f 44/35/70 43/37/70 177/37/70
f 106/86/71 105/87/71 239/87/71
f 55/9/16 54/10/16 188/10/16
f 117/112/72 116/107/72 250/107/72
f 41/38/73 40/36/73 174/36/73
f 85/88/74 84/85/74 218/85/74
f 71/64/75 70/63/75 204/63/75
f 54/10/76 53/11/76 187/11/76
f 6/12/77 5/8/77 139/8/77
f 70/63/78 69/65/78 203/65/78
f 43/37/79 42/39/79 176/39/79
f 105/87/80 104/89/80 238/89/80
f 73/66/81 72/62/81 206/62/81
f 42/39/82 41/38/82 175/38/82
f 86/90/83 85/88/83 219/88/83
f 122/2/84 121/114/84 255/114/84
f 53/11/85 52/13/85 186/13/85
f 118/115/13 117/112/13 251/112/13
f 69/65/86 68/67/86 202/67/86
f 119/113/87 118/115/87 252/115/87
f 10/40/88 9/33/88 143/33/88
f 104/89/89 103/91/89 237/91/89
f 52/13/90 51/14/90 185/14/90
f 74/68/91 73/66/91 207/66/91
f 120/116/92 119/113/92 253/113/92
f 87/92/93 86/90/93 220/90/93
f 7/15/94 6/12/94 140/12/94
f 121/114/13 120/116/13 254/116/13
f 11/41/95 10/40/95 144/40/95
f 125/110/56 124/111/56 258/111/56
f 68/67/96 67/69/96 201/69/96
f 12/42/97 11/41/97 145/41/97
f 103/91/98 102/93/98 236/93/98
f 51/14/99 50/16/99 184/16/99
f 75/70/100 74/68/100 208/68/100
f 88/94/101 87/92/101 221/92/101
f 31/17/102 30/19/102 164/19/102
f 124/111/11 123/3/11 257/3/11
f 29/18/103 28/43/103 162/43/103
f 30/19/16 29/18/16 163/18/16
f 67/69/104 66/71/104 200/71/104
f 134/2/13 133/114/13 267/114/13
f 13/44/105 12/42/105 146/42/105
f 102/93/106 101/95/106 235/95/106
f 32/20/107 31/17/107 165/17/107
f 76/55/108 75/70/108 209/70/108
f 123/3/16 134/2/16 268/2/16
f 89/96/109 88/94/109 222/94/109
f 133/114/16 132/116/16 266/116/16
f 28/43/110 27/45/110 161/45/110
f 50/16/111 49/21/111 183/21/111
f 66/71/3 199/72/3 200/71/3
f 101/95/4 234/97/4 235/95/4
f 33/22/112 166/20/112 167/22/112
f 77/73/6 210/55/6 211/73/6
f 27/45/7 160/46/7 161/45/7
f 90/98/8 223/96/8 224/98/8
f 14/47/9 147/44/9 148/47/9
f 8/23/10 141/15/10 142/23/10
f 132/116/11 265/113/11 266/116/11
f 65/72/12 198/74/12 199/72/12
f 130/115/13 263/112/13 264/115/13
f 100/97/14 233/99/14 234/97/14
f 78/75/15 211/73/15 212/75/15
f 131/113/16 264/115/16 265/113/16
f 26/46/17 159/48/17 160/46/17
f 91/100/18 224/98/18 225/100/18
f 49/21/19 182/24/19 183/21/19
f 34/25/20 167/22/20 168/25/20
f 129/112/16 262/107/16 263/112/16
f 25/48/21 158/49/21 159/48/21
f 64/74/22 197/76/22 198/74/22
f 99/99/23 232/101/23 233/99/23
f 35/26/24 168/25/24 169/26/24
f 79/77/25 212/75/25 213/77/25
f 128/107/11 261/109/11 262/107/11
f 24/49/26 157/50/26 158/49/26
f 92/102/27 225/100/27 226/102/27
f 126/108/13 259/110/13 260/108/13
f 15/51/28 148/47/28 149/51/28
f 127/109/16 260/108/16 261/109/16
f 48/24/113 181/27/113 182/24/113
f 63/76/30 196/78/30 197/76/30
f 98/101/31 231/103/31 232/101/31
f 36/28/32 169/26/32 170/28/32
f 80/79/33 213/77/33 214/79/33
f 23/50/34 156/52/34 157/50/34
f 93/34/35 226/102/35 227/34/35
f 22/52/36 155/53/36 156/52/36
f 47/27/37 180/29/37 181/27/37
f 62/78/114 195/80/114 196/78/114
f 2/1/39 135/3/39 136/1/39
f 16/54/40 149/51/40 150/54/40
f 97/103/41 230/104/41 231/103/41
f 37/30/42 170/28/42 171/30/42
f 81/81/115 214/79/115 215/81/115
f 94/105/44 227/34/44 228/105/44
f 1/3/16 192/2/16 135/3/16
f 21/53/45 154/55/45 155/53/45
f 95/106/46 228/105/46 229/106/46
f 46/29/47 179/31/47 180/29/47
f 61/80/48 194/82/48 195/80/48
f 58/2/11 191/4/11 192/2/11
f 96/104/49 229/106/49 230/104/49
f 38/32/50 171/30/50 172/32/50
f 82/83/51 215/81/51 216/83/51
f 20/55/52 153/56/52 154/55/52
f 116/107/53 249/109/53 250/107/53
f 57/4/16 190/5/16 191/4/16
f 17/57/54 150/54/54 151/57/54
f 9/33/55 142/23/55 143/33/55
f 3/6/56 136/1/56 137/6/56
f 115/109/11 248/108/11 249/109/11
f 60/82/57 193/3/57 194/82/57
f 18/58/58 151/57/58 152/58/58
f 39/34/116 172/32/116 173/34/116
f 83/84/60 216/83/60 217/84/60
f 4/7/13 137/6/13 138/7/13
f 19/56/61 152/58/61 153/56/61
f 114/108/62 247/110/62 248/108/62
f 109/59/56 242/61/56 243/59/56
f 113/110/63 246/111/63 247/110/63
f 84/85/64 217/84/64 218/85/64
f 5/8/56 138/7/56 139/8/56
f 45/31/65 178/35/65 179/31/65
f 108/61/11 241/60/11 242/61/11
f 112/111/11 245/3/11 246/111/11
f 40/36/66 173/34/66 174/36/66
f 110/2/13 243/59/13 244/2/13
f 59/3/67 240/86/67 193/3/67
f 56/5/13 189/9/13 190/5/13
f 107/60/16 244/2/16 241/60/16
f 111/3/68 256/2/68 245/3/68
f 72/62/69 205/64/69 206/62/69
f 44/35/70 177/37/70 178/35/70
f 106/86/71 239/87/71 240/86/71
f 55/9/16 188/10/16 189/9/16
f 117/112/72 250/107/72 251/112/72
f 41/38/73 174/36/73 175/38/73
f 85/88/74 218/85/74 219/88/74
f 71/64/75 204/63/75 205/64/75
f 54/10/76 187/11/76 188/10/76
f 6/12/77 139/8/77 140/12/77
f 70/63/78 203/65/78 204/63/78
f 43/37/79 176/39/79 177/37/79
f 105/87/117 238/89/117 239/87/117
f 73/66/81 206/62/81 207/66/81
f 42/39/82 175/38/82 176/39/82
f 86/90/118 219/88/118 220/90/118
f 122/2/84 255/114/84 256/2/84
f 53/11/85 186/13/85 187/11/85
f 118/115/13 251/112/13 252/115/13
f 69/65/86 202/67/86 203/65/86
f 119/113/87 252/115/87 253/113/87
f 10/40/119 143/33/119 144/40/119
f 104/89/89 237/91/89 238/89/89
f 52/13/90 185/14/90 186/13/90
f 74/68/91 207/66/91 208/68/91
f 120/116/92 253/113/92 254/116/92
f 87/92/120 220/90/120 221/92/120
f 7/15/94 140/12/94 141/15/94
f 121/114/13 254/116/13 255/114/13
f 11/41/95 144/40/95 145/41/95
f 125/110/56 258/111/56 259/110/56
f 68/67/96 201/69/96 202/67/96
f 12/42/97 145/41/97 146/42/97
f 103/91/98 236/93/98 237/91/98
f 51/14/99 184/16/99 185/14/99
f 75/70/100 208/68/100 209/70/100
f 88/94/101 221/92/101 222/94/101
f 31/17/102 164/19/102 165/17/102
f 124/111/11 257/3/11 258/111/11
f 29/18/103 162/43/103 163/18/103
f 30/19/16 163/18/16 164/19/16
f 67/69/104 200/71/104 201/69/104
f 134/2/13 267/114/13 268/2/13
f 13/44/105 146/42/105 147/44/105
f 102/93/106 235/95/106 236/93/106
f 32/20/107 165/17/107 166/20/107
f 76/55/108 209/70/108 210/55/108
f 123/3/16 268/2/16 257/3/16
f 89/96/109 222/94/109 223/96/109
f 133/114/16 266/116/16 267/114/16
f 28/43/110 161/45/110 162/43/110
f 50/16/111 183/21/111 184/16/111
