# Blender 4.3.0
# www.blender.org
mtllib Play.mtl.mtl
o Text
v 1.594000 0.449000 0.000000
v 1.494000 0.449000 0.000000
v 1.378000 0.196000 0.000000
v 1.257000 0.449000 0.000000
v 1.156000 0.449000 0.000000
v 1.330000 0.096000 0.000000
v 1.177000 -0.230000 -0.000000
v 1.276000 -0.230000 -0.000000
v 1.140000 0.080000 0.000000
v 1.135046 0.076377 0.000000
v 1.130199 0.073014 0.000000
v 1.125484 0.069922 0.000000
v 1.120926 0.067111 0.000000
v 1.116548 0.064592 0.000000
v 1.112375 0.062375 0.000000
v 1.108431 0.060470 0.000000
v 1.104741 0.058889 0.000000
v 1.101328 0.057641 0.000000
v 1.098218 0.056736 0.000000
v 1.095433 0.056186 0.000000
v 1.093000 0.056000 0.000000
v 1.090355 0.056128 0.000000
v 1.087922 0.056523 0.000000
v 1.085703 0.057203 0.000000
v 1.083704 0.058185 0.000000
v 1.081927 0.059487 0.000000
v 1.080375 0.061125 0.000000
v 1.079053 0.063117 0.000000
v 1.077963 0.065481 0.000000
v 1.077110 0.068234 0.000000
v 1.076496 0.071394 0.000000
v 1.076125 0.074976 0.000000
v 1.076000 0.079000 0.000000
v 1.076000 0.310000 0.000000
v 1.074531 0.334339 0.000000
v 1.070245 0.356380 0.000000
v 1.063328 0.376156 0.000000
v 1.053963 0.393704 0.000000
v 1.042334 0.409057 0.000000
v 1.028625 0.422250 0.000000
v 1.013020 0.433318 0.000000
v 0.995704 0.442296 0.000000
v 0.976859 0.449219 0.000000
v 0.956671 0.454120 0.000000
v 0.935323 0.457036 0.000000
v 0.913000 0.458000 0.000000
v 0.897082 0.457583 0.000000
v 0.881824 0.456329 0.000000
v 0.867219 0.454234 0.000000
v 0.853259 0.451296 0.000000
v 0.839939 0.447511 0.000000
v 0.827250 0.442875 0.000000
v 0.815186 0.437385 0.000000
v 0.803741 0.431037 0.000000
v 0.792906 0.423828 0.000000
v 0.782676 0.415755 0.000000
v 0.773043 0.406813 0.000000
v 0.764000 0.397000 0.000000
v 0.764000 0.300000 0.000000
v 0.774891 0.312170 0.000000
v 0.786046 0.323190 0.000000
v 0.797438 0.333078 0.000000
v 0.809037 0.341852 0.000000
v 0.820817 0.349528 0.000000
v 0.832750 0.356125 0.000000
v 0.844808 0.361659 0.000000
v 0.856963 0.366148 0.000000
v 0.869188 0.369609 0.000000
v 0.881454 0.372060 0.000000
v 0.893734 0.373518 0.000000
v 0.906000 0.374000 0.000000
v 0.918938 0.373515 0.000000
v 0.930750 0.372037 0.000000
v 0.941438 0.369531 0.000000
v 0.951000 0.365963 0.000000
v 0.959438 0.361297 0.000000
v 0.966750 0.355500 0.000000
v 0.972938 0.348536 0.000000
v 0.978000 0.340370 0.000000
v 0.981937 0.330969 0.000000
v 0.984750 0.320296 0.000000
v 0.986437 0.308318 0.000000
v 0.987000 0.295000 0.000000
v 0.987000 0.271000 0.000000
v 0.908000 0.243000 0.000000
v 0.889865 0.236444 0.000000
v 0.871667 0.229634 0.000000
v 0.853719 0.222359 0.000000
v 0.836333 0.214407 0.000000
v 0.819823 0.205567 0.000000
v 0.804500 0.195625 0.000000
v 0.790677 0.184371 0.000000
v 0.778667 0.171593 0.000000
v 0.768781 0.157078 0.000000
v 0.761333 0.140616 0.000000
v 0.756636 0.121994 0.000000
v 0.755000 0.101000 0.000000
v 0.755904 0.086652 0.000000
v 0.758565 0.072713 0.000000
v 0.762906 0.059344 0.000000
v 0.768852 0.046704 0.000000
v 0.776325 0.034953 0.000000
v 0.785250 0.024250 0.000000
v 0.795550 0.014756 0.000000
v 0.807148 0.006630 0.000000
v 0.819969 0.000031 0.000000
v 0.833935 -0.004880 -0.000000
v 0.848971 -0.007943 -0.000000
v 0.865000 -0.009000 -0.000000
v 0.875249 -0.008687 -0.000000
v 0.885491 -0.007745 -0.000000
v 0.895719 -0.006172 -0.000000
v 0.905926 -0.003963 -0.000000
v 0.916105 -0.001115 -0.000000
v 0.926250 0.002375 0.000000
v 0.936353 0.006511 0.000000
v 0.946407 0.011296 0.000000
v 0.956406 0.016734 0.000000
v 0.966343 0.022829 0.000000
v 0.976210 0.029583 0.000000
v 0.986000 0.037000 0.000000
v 0.988274 0.029373 0.000000
v 0.991107 0.022481 0.000000
v 0.994516 0.016312 0.000000
v 0.998519 0.010852 0.000000
v 1.003133 0.006086 0.000000
v 1.008375 0.002000 0.000000
v 1.014263 -0.001419 -0.000000
v 1.020815 -0.004185 -0.000000
v 1.028047 -0.006313 -0.000000
v 1.035977 -0.007815 -0.000000
v 1.044622 -0.008706 -0.000000
v 1.054000 -0.009000 -0.000000
v 1.060791 -0.008827 -0.000000
v 1.067245 -0.008282 -0.000000
v 1.073485 -0.007328 -0.000000
v 1.079630 -0.005926 -0.000000
v 1.085803 -0.004038 -0.000000
v 1.092125 -0.001625 -0.000000
v 1.098718 0.001350 0.000000
v 1.105704 0.004926 0.000000
v 1.113203 0.009141 0.000000
v 1.121338 0.014032 0.000000
v 1.130230 0.019639 0.000000
v 1.140000 0.026000 0.000000
v 0.987000 0.091000 0.000000
v 0.980958 0.085440 0.000000
v 0.974833 0.080273 0.000000
v 0.968625 0.075516 0.000000
v 0.962333 0.071185 0.000000
v 0.955958 0.067299 0.000000
v 0.949500 0.063875 0.000000
v 0.942958 0.060930 0.000000
v 0.936333 0.058481 0.000000
v 0.929625 0.056547 0.000000
v 0.922833 0.055144 0.000000
v 0.915958 0.054289 0.000000
v 0.909000 0.054000 0.000000
v 0.899968 0.054533 0.000000
v 0.891412 0.056097 0.000000
v 0.883391 0.058641 0.000000
v 0.875963 0.062111 0.000000
v 0.869188 0.066457 0.000000
v 0.863125 0.071625 0.000000
v 0.857833 0.077564 0.000000
v 0.853370 0.084222 0.000000
v 0.849797 0.091547 0.000000
v 0.847171 0.099486 0.000000
v 0.845553 0.107988 0.000000
v 0.845000 0.117000 0.000000
v 0.846343 0.129703 0.000000
v 0.850241 0.141375 0.000000
v 0.856500 0.152109 0.000000
v 0.864926 0.162000 0.000000
v 0.875324 0.171141 0.000000
v 0.887500 0.179625 0.000000
v 0.901259 0.187547 0.000000
v 0.916408 0.195000 0.000000
v 0.932750 0.202078 0.000000
v 0.950093 0.208875 0.000000
v 0.968241 0.215484 0.000000
v 0.987000 0.222000 0.000000
v 0.664000 0.682000 0.000000
v 0.575000 0.682000 0.000000
v 0.575000 0.000000 0.000000
v 0.664000 0.000000 0.000000
v 0.070000 0.682000 0.000000
v 0.070000 0.000000 0.000000
v 0.168000 0.000000 0.000000
v 0.168000 0.295000 0.000000
v 0.270000 0.295000 0.000000
v 0.307716 0.296715 0.000000
v 0.341898 0.301718 0.000000
v 0.372594 0.309797 0.000000
v 0.399852 0.320741 0.000000
v 0.423721 0.334337 0.000000
v 0.444250 0.350375 0.000000
v 0.461487 0.368642 0.000000
v 0.475481 0.388926 0.000000
v 0.486281 0.411016 0.000000
v 0.493935 0.434699 0.000000
v 0.498492 0.459765 0.000000
v 0.500000 0.486000 0.000000
v 0.498576 0.512544 0.000000
v 0.494273 0.538019 0.000000
v 0.487047 0.562188 0.000000
v 0.476852 0.584815 0.000000
v 0.463643 0.605664 0.000000
v 0.447375 0.624500 0.000000
v 0.428003 0.641086 0.000000
v 0.405482 0.655185 0.000000
v 0.379766 0.666563 0.000000
v 0.350810 0.674982 0.000000
v 0.318570 0.680206 0.000000
v 0.283000 0.682000 0.000000
v 0.168000 0.594000 0.000000
v 0.283000 0.594000 0.000000
v 0.303979 0.592909 0.000000
v 0.322495 0.589769 0.000000
v 0.338672 0.584781 0.000000
v 0.352630 0.578148 0.000000
v 0.364490 0.570071 0.000000
v 0.374375 0.560750 0.000000
v 0.382406 0.550388 0.000000
v 0.388704 0.539185 0.000000
v 0.393391 0.527344 0.000000
v 0.396588 0.515065 0.000000
v 0.398417 0.502550 0.000000
v 0.399000 0.490000 0.000000
v 0.398033 0.473610 0.000000
v 0.395181 0.458463 0.000000
v 0.390516 0.444594 0.000000
v 0.384111 0.432037 0.000000
v 0.376040 0.420828 0.000000
v 0.366375 0.411000 0.000000
v 0.355189 0.402589 0.000000
v 0.342556 0.395630 0.000000
v 0.328547 0.390156 0.000000
v 0.313236 0.386204 0.000000
v 0.296696 0.383807 0.000000
v 0.279000 0.383000 0.000000
v 0.168000 0.383000 0.000000
v 1.594000 0.449000 -0.050000
v 1.494000 0.449000 -0.050000
v 1.378000 0.196000 -0.050000
v 1.257000 0.449000 -0.050000
v 1.156000 0.449000 -0.050000
v 1.330000 0.096000 -0.050000
v 1.177000 -0.230000 -0.050000
v 1.276000 -0.230000 -0.050000
v 1.140000 0.080000 -0.050000
v 1.135046 0.076377 -0.050000
v 1.130199 0.073014 -0.050000
v 1.125484 0.069922 -0.050000
v 1.120926 0.067111 -0.050000
v 1.116548 0.064592 -0.050000
v 1.112375 0.062375 -0.050000
v 1.108431 0.060470 -0.050000
v 1.104741 0.058889 -0.050000
v 1.101328 0.057641 -0.050000
v 1.098218 0.056736 -0.050000
v 1.095433 0.056186 -0.050000
v 1.093000 0.056000 -0.050000
v 1.090355 0.056128 -0.050000
v 1.087922 0.056523 -0.050000
v 1.085703 0.057203 -0.050000
v 1.083704 0.058185 -0.050000
v 1.081927 0.059487 -0.050000
v 1.080375 0.061125 -0.050000
v 1.079053 0.063117 -0.050000
v 1.077963 0.065481 -0.050000
v 1.077110 0.068234 -0.050000
v 1.076496 0.071394 -0.050000
v 1.076125 0.074976 -0.050000
v 1.076000 0.079000 -0.050000
v 1.076000 0.310000 -0.050000
v 1.074531 0.334339 -0.050000
v 1.070245 0.356380 -0.050000
v 1.063328 0.376156 -0.050000
v 1.053963 0.393704 -0.050000
v 1.042334 0.409057 -0.050000
v 1.028625 0.422250 -0.050000
v 1.013020 0.433318 -0.050000
v 0.995704 0.442296 -0.050000
v 0.976859 0.449219 -0.050000
v 0.956671 0.454120 -0.050000
v 0.935323 0.457036 -0.050000
v 0.913000 0.458000 -0.050000
v 0.897082 0.457583 -0.050000
v 0.881824 0.456329 -0.050000
v 0.867219 0.454234 -0.050000
v 0.853259 0.451296 -0.050000
v 0.839939 0.447511 -0.050000
v 0.827250 0.442875 -0.050000
v 0.815186 0.437385 -0.050000
v 0.803741 0.431037 -0.050000
v 0.792906 0.423828 -0.050000
v 0.782676 0.415755 -0.050000
v 0.773043 0.406813 -0.050000
v 0.764000 0.397000 -0.050000
v 0.764000 0.300000 -0.050000
v 0.774891 0.312170 -0.050000
v 0.786046 0.323190 -0.050000
v 0.797438 0.333078 -0.050000
v 0.809037 0.341852 -0.050000
v 0.820817 0.349528 -0.050000
v 0.832750 0.356125 -0.050000
v 0.844808 0.361659 -0.050000
v 0.856963 0.366148 -0.050000
v 0.869188 0.369609 -0.050000
v 0.881454 0.372060 -0.050000
v 0.893734 0.373518 -0.050000
v 0.906000 0.374000 -0.050000
v 0.918938 0.373515 -0.050000
v 0.930750 0.372037 -0.050000
v 0.941438 0.369531 -0.050000
v 0.951000 0.365963 -0.050000
v 0.959438 0.361297 -0.050000
v 0.966750 0.355500 -0.050000
v 0.972938 0.348536 -0.050000
v 0.978000 0.340370 -0.050000
v 0.981937 0.330969 -0.050000
v 0.984750 0.320296 -0.050000
v 0.986437 0.308318 -0.050000
v 0.987000 0.295000 -0.050000
v 0.987000 0.271000 -0.050000
v 0.908000 0.243000 -0.050000
v 0.889865 0.236444 -0.050000
v 0.871667 0.229634 -0.050000
v 0.853719 0.222359 -0.050000
v 0.836333 0.214407 -0.050000
v 0.819823 0.205567 -0.050000
v 0.804500 0.195625 -0.050000
v 0.790677 0.184371 -0.050000
v 0.778667 0.171593 -0.050000
v 0.768781 0.157078 -0.050000
v 0.761333 0.140616 -0.050000
v 0.756636 0.121994 -0.050000
v 0.755000 0.101000 -0.050000
v 0.755904 0.086652 -0.050000
v 0.758565 0.072713 -0.050000
v 0.762906 0.059344 -0.050000
v 0.768852 0.046704 -0.050000
v 0.776325 0.034953 -0.050000
v 0.785250 0.024250 -0.050000
v 0.795550 0.014756 -0.050000
v 0.807148 0.006630 -0.050000
v 0.819969 0.000031 -0.050000
v 0.833935 -0.004880 -0.050000
v 0.848971 -0.007943 -0.050000
v 0.865000 -0.009000 -0.050000
v 0.875249 -0.008687 -0.050000
v 0.885491 -0.007745 -0.050000
v 0.895719 -0.006172 -0.050000
v 0.905926 -0.003963 -0.050000
v 0.916105 -0.001115 -0.050000
v 0.926250 0.002375 -0.050000
v 0.936353 0.006511 -0.050000
v 0.946407 0.011296 -0.050000
v 0.956406 0.016734 -0.050000
v 0.966343 0.022829 -0.050000
v 0.976210 0.029583 -0.050000
v 0.986000 0.037000 -0.050000
v 0.988274 0.029373 -0.050000
v 0.991107 0.022481 -0.050000
v 0.994516 0.016312 -0.050000
v 0.998519 0.010852 -0.050000
v 1.003133 0.006086 -0.050000
v 1.008375 0.002000 -0.050000
v 1.014263 -0.001419 -0.050000
v 1.020815 -0.004185 -0.050000
v 1.028047 -0.006313 -0.050000
v 1.035977 -0.007815 -0.050000
v 1.044622 -0.008706 -0.050000
v 1.054000 -0.009000 -0.050000
v 1.060791 -0.008827 -0.050000
v 1.067245 -0.008282 -0.050000
v 1.073485 -0.007328 -0.050000
v 1.079630 -0.005926 -0.050000
v 1.085803 -0.004038 -0.050000
v 1.092125 -0.001625 -0.050000
v 1.098718 0.001350 -0.050000
v 1.105704 0.004926 -0.050000
v 1.113203 0.009141 -0.050000
v 1.121338 0.014032 -0.050000
v 1.130230 0.019639 -0.050000
v 1.140000 0.026000 -0.050000
v 0.987000 0.091000 -0.050000
v 0.980958 0.085440 -0.050000
v 0.974833 0.080273 -0.050000
v 0.968625 0.075516 -0.050000
v 0.962333 0.071185 -0.050000
v 0.955958 0.067299 -0.050000
v 0.949500 0.063875 -0.050000
v 0.942958 0.060930 -0.050000
v 0.936333 0.058481 -0.050000
v 0.929625 0.056547 -0.050000
v 0.922833 0.055144 -0.050000
v 0.915958 0.054289 -0.050000
v 0.909000 0.054000 -0.050000
v 0.899968 0.054533 -0.050000
v 0.891412 0.056097 -0.050000
v 0.883391 0.058641 -0.050000
v 0.875963 0.062111 -0.050000
v 0.869188 0.066457 -0.050000
v 0.863125 0.071625 -0.050000
v 0.857833 0.077564 -0.050000
v 0.853370 0.084222 -0.050000
v 0.849797 0.091547 -0.050000
v 0.847171 0.099486 -0.050000
v 0.845553 0.107988 -0.050000
v 0.845000 0.117000 -0.050000
v 0.846343 0.129703 -0.050000
v 0.850241 0.141375 -0.050000
v 0.856500 0.152109 -0.050000
v 0.864926 0.162000 -0.050000
v 0.875324 0.171141 -0.050000
v 0.887500 0.179625 -0.050000
v 0.901259 0.187547 -0.050000
v 0.916408 0.195000 -0.050000
v 0.932750 0.202078 -0.050000
v 0.950093 0.208875 -0.050000
v 0.968241 0.215484 -0.050000
v 0.987000 0.222000 -0.050000
v 0.664000 0.682000 -0.050000
v 0.575000 0.682000 -0.050000
v 0.575000 0.000000 -0.050000
v 0.664000 0.000000 -0.050000
v 0.070000 0.682000 -0.050000
v 0.070000 0.000000 -0.050000
v 0.168000 0.000000 -0.050000
v 0.168000 0.295000 -0.050000
v 0.270000 0.295000 -0.050000
v 0.307716 0.296715 -0.050000
v 0.341898 0.301718 -0.050000
v 0.372594 0.309797 -0.050000
v 0.399852 0.320741 -0.050000
v 0.423721 0.334337 -0.050000
v 0.444250 0.350375 -0.050000
v 0.461487 0.368642 -0.050000
v 0.475481 0.388926 -0.050000
v 0.486281 0.411016 -0.050000
v 0.493935 0.434699 -0.050000
v 0.498492 0.459765 -0.050000
v 0.500000 0.486000 -0.050000
v 0.498576 0.512544 -0.050000
v 0.494273 0.538019 -0.050000
v 0.487047 0.562188 -0.050000
v 0.476852 0.584815 -0.050000
v 0.463643 0.605664 -0.050000
v 0.447375 0.624500 -0.050000
v 0.428003 0.641086 -0.050000
v 0.405482 0.655185 -0.050000
v 0.379766 0.666563 -0.050000
v 0.350810 0.674982 -0.050000
v 0.318570 0.680206 -0.050000
v 0.283000 0.682000 -0.050000
v 0.168000 0.594000 -0.050000
v 0.283000 0.594000 -0.050000
v 0.303979 0.592909 -0.050000
v 0.322495 0.589769 -0.050000
v 0.338672 0.584781 -0.050000
v 0.352630 0.578148 -0.050000
v 0.364490 0.570071 -0.050000
v 0.374375 0.560750 -0.050000
v 0.382406 0.550388 -0.050000
v 0.388704 0.539185 -0.050000
v 0.393391 0.527344 -0.050000
v 0.396588 0.515065 -0.050000
v 0.398417 0.502550 -0.050000
v 0.399000 0.490000 -0.050000
v 0.398033 0.473610 -0.050000
v 0.395181 0.458463 -0.050000
v 0.390516 0.444594 -0.050000
v 0.384111 0.432037 -0.050000
v 0.376040 0.420828 -0.050000
v 0.366375 0.411000 -0.050000
v 0.355189 0.402589 -0.050000
v 0.342556 0.395630 -0.050000
v 0.328547 0.390156 -0.050000
v 0.313236 0.386204 -0.050000
v 0.296696 0.383807 -0.050000
v 0.279000 0.383000 -0.050000
v 0.168000 0.383000 -0.050000
vn -0.0000 -0.0000 1.0000
vn -0.0000 -0.0000 -1.0000
vn 1.0000 -0.0000 -0.0000
vn -0.9090 0.4168 -0.0000
vn 0.9551 0.2961 -0.0000
vn -0.9991 -0.0422 -0.0000
vn -0.9983 0.0589 -0.0000
vn -0.4684 0.8835 -0.0000
vn -0.0000 1.0000 -0.0000
vn 0.4557 -0.8902 -0.0000
vn -1.0000 -0.0000 -0.0000
vn -0.4987 0.8667 -0.0000
vn 0.9056 -0.4241 -0.0000
vn 0.9984 -0.0574 -0.0000
vn 0.3253 -0.9456 -0.0000
vn -0.3341 0.9425 -0.0000
vn -0.9827 0.1851 -0.0000
vn -0.5021 -0.8648 -0.0000
vn -0.9053 0.4249 -0.0000
vn 0.5399 0.8417 -0.0000
vn -0.0000 -1.0000 -0.0000
vn -0.0262 0.9997 -0.0000
vn 0.9839 -0.1789 -0.0000
vn 0.4113 -0.9115 -0.0000
vn 0.9082 0.4186 -0.0000
vn -0.3400 0.9404 -0.0000
vn -0.9478 0.3188 -0.0000
vn -0.3317 -0.9434 -0.0000
vn -0.4692 0.8831 -0.0000
vn 0.0431 0.9991 -0.0000
vn -0.3505 0.9366 -0.0000
vn -0.0819 0.9966 -0.0000
vn -0.8908 0.4544 -0.0000
vn -0.4105 0.9119 -0.0000
vn 0.2694 -0.9630 -0.0000
vn -0.3756 0.9268 -0.0000
vn -0.3890 -0.9212 -0.0000
vn 0.1353 0.9908 -0.0000
vn 0.9515 -0.3075 -0.0000
vn 0.8332 0.5530 -0.0000
vn -0.4159 0.9094 -0.0000
vn -0.1419 0.9899 -0.0000
vn -0.8115 0.5843 -0.0000
vn -0.4349 0.9005 -0.0000
vn 0.3565 -0.9343 -0.0000
vn -0.2060 0.9786 -0.0000
vn -0.7130 0.7012 -0.0000
vn 0.3281 -0.9446 -0.0000
vn 0.2115 -0.9774 -0.0000
vn 0.4233 0.9060 -0.0000
vn 0.2359 0.9718 -0.0000
vn 0.8984 -0.4392 -0.0000
vn 0.2925 -0.9563 -0.0000
vn 0.7260 0.6876 -0.0000
vn -0.2733 0.9619 -0.0000
vn -0.6010 0.7993 -0.0000
vn -0.2822 -0.9594 -0.0000
vn -0.3467 0.9380 -0.0000
vn 0.3422 -0.9396 -0.0000
vn -0.4721 0.8816 -0.0000
vn -0.4825 0.8759 -0.0000
vn -0.1997 -0.9799 -0.0000
vn -0.3939 0.9191 -0.0000
vn 0.3448 0.9387 -0.0000
vn -0.3432 0.9393 -0.0000
vn -0.3639 0.9314 -0.0000
vn 0.3649 -0.9310 -0.0000
vn 0.2225 -0.9749 -0.0000
vn 0.5909 0.8068 -0.0000
vn -0.5443 0.8389 -0.0000
vn -0.4142 0.9102 -0.0000
vn -0.2500 0.9683 -0.0000
vn -0.9049 -0.4256 -0.0000
vn 0.1521 -0.9884 -0.0000
vn -0.1861 -0.9825 -0.0000
vn -0.3435 0.9391 -0.0000
vn 0.3974 -0.9176 -0.0000
vn 0.4603 0.8878 -0.0000
vn 0.8231 -0.5679 -0.0000
vn -0.6314 0.7755 -0.0000
vn -0.4850 0.8745 -0.0000
vn -0.1434 0.9897 -0.0000
vn 0.1512 -0.9885 -0.0000
vn 0.3023 0.9532 -0.0000
vn -0.0455 0.9990 -0.0000
vn -0.2771 0.9608 -0.0000
vn 0.4415 -0.8973 -0.0000
vn 0.5785 0.8157 -0.0000
vn 0.0915 -0.9958 -0.0000
vn -0.5540 0.8325 -0.0000
vn -0.1025 -0.9947 -0.0000
vn 0.4990 -0.8666 -0.0000
vn 0.4409 0.8976 -0.0000
vn -0.7287 0.6849 -0.0000
vn -0.6195 0.7850 -0.0000
vn -0.0658 -0.9978 -0.0000
vn -0.2792 0.9602 -0.0000
vn 0.0305 -0.9995 -0.0000
vn 0.5717 -0.8205 -0.0000
vn 0.6934 0.7205 -0.0000
vn 0.0841 -0.9965 -0.0000
vn 0.2931 0.9561 -0.0000
vn -0.8265 0.5629 -0.0000
vn -0.6803 0.7329 -0.0000
vn 0.7273 -0.6863 -0.0000
vn -0.0313 -0.9995 -0.0000
vn -0.1939 0.9810 -0.0000
vn 0.0255 -0.9997 -0.0000
vn 0.6156 -0.7880 -0.0000
vn -0.2024 0.9793 -0.0000
vn 0.6602 -0.7511 -0.0000
vn 0.7971 0.6038 -0.0000
vn -0.7354 0.6777 -0.0000
vn 0.4950 -0.8689 -0.0000
vn 0.7612 -0.6485 -0.0000
vn 0.1603 0.9871 -0.0000
vn -0.9111 0.4122 -0.0000
vn 0.3726 -0.9280 -0.0000
vn -0.0761 0.9971 -0.0000
vn 0.7452 -0.6669 -0.0000
vn 0.2545 -0.9671 -0.0000
vn 0.8639 -0.5037 -0.0000
vn 0.7028 -0.7114 -0.0000
vn 0.0483 0.9988 -0.0000
vn 0.1448 -0.9895 -0.0000
vn 0.9485 -0.3168 -0.0000
vn 0.6555 -0.7552 -0.0000
vn 0.1798 0.9837 -0.0000
vn -0.9696 0.2446 -0.0000
vn 0.0454 -0.9990 -0.0000
vn 0.6033 -0.7975 -0.0000
vn 0.0504 0.9987 -0.0000
vn -0.1234 0.9924 -0.0000
vn 0.9945 -0.1051 -0.0000
vn 0.5460 -0.8378 -0.0000
vn 0.1600 0.9871 -0.0000
vn -0.9970 0.0777 -0.0000
vn 0.0589 0.9983 -0.0000
vn 0.4838 -0.8752 -0.0000
vn 0.2792 0.9602 -0.0000
vn -0.0415 0.9991 -0.0000
vn 0.9981 0.0612 -0.0000
vn 0.4171 -0.9088 -0.0000
vn 0.4046 0.9145 -0.0000
vn 0.9824 0.1870 -0.0000
vn 0.3464 -0.9381 -0.0000
vn 0.5306 0.8476 -0.0000
vn -0.9980 -0.0629 -0.0000
vn -0.8438 -0.5366 -0.0000
vn 0.2724 -0.9622 -0.0000
vn 0.6504 0.7596 -0.0000
vn 0.9494 0.3140 -0.0000
vn 0.1959 -0.9806 -0.0000
vn 0.7568 0.6536 -0.0000
vn 0.6039 -0.7971 -0.0000
vn -0.9583 -0.2857 -0.0000
vn 0.8987 0.4385 -0.0000
vn -0.6771 0.7358 -0.0000
vn 0.1179 -0.9930 -0.0000
vn -0.7680 -0.6404 -0.0000
vn 0.8447 0.5352 -0.0000
vn -0.9823 -0.1875 -0.0000
vn 0.0393 -0.9992 -0.0000
vn 0.5649 -0.8252 -0.0000
vn -0.6448 0.7643 -0.0000
vn -0.0520 -0.9986 -0.0000
vn -0.9249 -0.3802 -0.0000
vn 0.8822 0.4709 -0.0000
vn -0.0375 -0.9993 -0.0000
vn -0.1672 -0.9859 -0.0000
vn 0.8307 0.5567 -0.0000
vn 0.5456 -0.8381 -0.0000
vn -0.6082 0.7937 -0.0000
vn -0.2946 -0.9556 -0.0000
vn -0.6778 -0.7353 -0.0000
vn 0.9439 0.3302 -0.0000
vn -0.5903 0.8072 -0.0000
vn -0.1242 -0.9923 -0.0000
vn 0.9117 0.4108 -0.0000
vn 0.5228 -0.8524 -0.0000
vn -0.2283 -0.9736 -0.0000
vn -0.4292 -0.9032 -0.0000
vn -0.8752 -0.4837 -0.0000
vn 0.9995 0.0309 -0.0000
vn -0.3496 -0.9369 -0.0000
vn -0.5629 -0.8265 -0.0000
vn 0.5334 -0.8459 -0.0000
vn 0.7466 0.6653 -0.0000
vn -0.4839 -0.8751 -0.0000
vn -0.6860 -0.7276 -0.0000
vn -0.5701 0.8216 -0.0000
vn 0.4778 -0.8785 -0.0000
vn -0.6213 -0.7836 -0.0000
vn -0.8065 -0.5912 -0.0000
vn -0.5670 0.8237 -0.0000
vn 0.9581 0.2865 -0.0000
vn -0.7904 -0.6126 -0.0000
vn -0.5738 -0.8190 -0.0000
vn 0.9816 0.1909 -0.0000
vn 0.9947 0.1030 -0.0000
vn -0.7476 -0.6642 -0.0000
vn -0.8717 -0.4901 -0.0000
vn -0.5484 0.8362 -0.0000
vn 0.5153 -0.8570 -0.0000
vn -0.8499 -0.5269 -0.0000
vn -0.9298 -0.3680 -0.0000
vn -0.9511 -0.3088 -0.0000
vn 0.4297 -0.9029 -0.0000
vn -0.9224 -0.3863 -0.0000
vn -0.7185 -0.6956 -0.0000
vn 0.9860 0.1665 -0.0000
vn 0.6487 0.7610 -0.0000
vn -0.9677 -0.2520 -0.0000
vn 0.9982 0.0603 -0.0000
vn 0.4899 -0.8718 -0.0000
vn 0.9816 0.1908 -0.0000
vn -0.9670 -0.2548 -0.0000
vn -0.8970 -0.4421 -0.0000
vn -0.9895 -0.1446 -0.0000
vn -0.4576 -0.8891 -0.0000
vn -0.5205 0.8539 -0.0000
vn -0.9902 -0.1395 -0.0000
vn -0.5249 0.8512 -0.0000
vn 0.9986 0.0536 -0.0000
vn 0.3789 -0.9255 -0.0000
vn 0.9021 0.4315 -0.0000
vn -0.9989 -0.0464 -0.0000
vn -0.6147 -0.7888 -0.0000
vn -0.3890 -0.9213 -0.0000
vn 0.7261 0.6876 -0.0000
vn -0.3939 0.9192 -0.0000
vn 0.5908 0.8068 -0.0000
vn -0.3435 0.9392 -0.0000
vn 0.3022 0.9532 -0.0000
vn -0.5539 0.8326 -0.0000
vn -0.6771 0.7359 -0.0000
vn 0.8822 0.4708 -0.0000
vn 0.8307 0.5568 -0.0000
vn -0.6083 0.7937 -0.0000
vn 0.9995 0.0310 -0.0000
vn -0.5700 0.8216 -0.0000
vn -0.9511 -0.3089 -0.0000
vn -0.7185 -0.6955 -0.0000
vn -0.5248 0.8512 -0.0000
vt 0.176000 0.217333
vt 0.224667 0.452667
vt 0.292000 0.452667
vt 0.144000 0.284000
vt 0.000000 0.452667
vt 0.066667 0.452667
vt 0.212000 -0.000000
vt 0.278000 -0.000000
vt 0.448612 0.763722
vt 0.423118 0.763357
vt 0.438000 0.764000
vt 0.458784 0.762886
vt 0.408886 0.761414
vt 0.468521 0.761490
vt 0.477827 0.759531
vt 0.395427 0.758146
vt 0.486708 0.757007
vt 0.382864 0.753531
vt 0.495167 0.753917
vt 0.503209 0.750257
vt 0.371320 0.747546
vt 0.510840 0.746025
vt 0.360917 0.740167
vt 0.518063 0.741219
vt 0.524883 0.735836
vt 0.351778 0.731371
vt 0.531305 0.729875
vt 0.344025 0.721136
vt 0.537333 0.723333
vt 0.537333 0.658667
vt 0.530073 0.666780
vt 0.522636 0.674127
vt 0.515042 0.680719
vt 0.507309 0.686568
vt 0.499455 0.691686
vt 0.491500 0.696083
vt 0.483461 0.699773
vt 0.475358 0.702765
vt 0.467208 0.705073
vt 0.459031 0.706707
vt 0.450844 0.707679
vt 0.442667 0.708000
vt 0.337781 0.709437
vt 0.434042 0.707677
vt 0.333170 0.696253
vt 0.426167 0.706691
vt 0.419042 0.705021
vt 0.412667 0.702642
vt 0.407042 0.699532
vt 0.402167 0.695667
vt 0.330313 0.681559
vt 0.398042 0.691024
vt 0.394667 0.685580
vt 0.392042 0.679313
vt 0.329333 0.665333
vt 0.390167 0.672198
vt 0.389042 0.664212
vt 0.329333 0.511333
vt 0.388667 0.655333
vt 0.388667 0.639333
vt 0.441333 0.620667
vt 0.388667 0.606667
vt 0.453424 0.616296
vt 0.465556 0.611756
vt 0.477521 0.606906
vt 0.489111 0.601605
vt 0.401173 0.602323
vt 0.388667 0.519333
vt 0.413272 0.597917
vt 0.500118 0.595711
vt 0.424833 0.593385
vt 0.510333 0.589083
vt 0.435728 0.588667
vt 0.519549 0.581581
vt 0.445827 0.583698
vt 0.455000 0.578417
vt 0.527556 0.573062
vt 0.463117 0.572760
vt 0.534146 0.563385
vt 0.470049 0.566667
vt 0.475667 0.560073
vt 0.539111 0.552410
vt 0.479840 0.552917
vt 0.482438 0.545135
vt 0.542243 0.539996
vt 0.483333 0.536667
vt 0.543333 0.526000
vt 0.482965 0.530659
vt 0.481886 0.524991
vt 0.542731 0.516434
vt 0.480135 0.519698
vt 0.477753 0.514815
vt 0.392694 0.515627
vt 0.540957 0.507142
vt 0.396778 0.512182
vt 0.474778 0.510376
vt 0.400917 0.509010
vt 0.289970 0.509584
vt 0.286667 0.476000
vt 0.286667 0.512000
vt 0.329250 0.508651
vt 0.471250 0.506417
vt 0.293201 0.507343
vt 0.405111 0.506123
vt 0.329003 0.506262
vt 0.296344 0.505281
vt 0.538063 0.498229
vt 0.467208 0.502971
vt 0.328594 0.504156
vt 0.409361 0.503533
vt 0.299383 0.503407
vt 0.328025 0.502321
vt 0.413667 0.501250
vt 0.302301 0.501728
vt 0.462691 0.500074
vt 0.327298 0.500745
vt 0.305083 0.500250
vt 0.418028 0.499287
vt 0.326417 0.499417
vt 0.307713 0.498980
vt 0.457740 0.497760
vt 0.325382 0.498324
vt 0.422444 0.497654
vt 0.310173 0.497926
vt 0.324197 0.497457
vt 0.534099 0.489802
vt 0.312448 0.497094
vt 0.452392 0.496065
vt 0.426917 0.496365
vt 0.322865 0.496802
vt 0.314522 0.496491
vt 0.321386 0.496349
vt 0.316378 0.496124
vt 0.431444 0.495429
vt 0.319763 0.496085
vt 0.318000 0.496000
vt 0.446688 0.495022
vt 0.436028 0.494859
vt 0.440667 0.494667
vt 0.389333 0.483333
vt 0.529117 0.481968
vt 0.395860 0.478388
vt 0.387818 0.478248
vt 0.523167 0.474833
vt 0.402438 0.473886
vt 0.385929 0.473654
vt 0.293180 0.471760
vt 0.516300 0.468504
vt 0.409063 0.469823
vt 0.383656 0.469542
vt 0.299108 0.468022
vt 0.415728 0.466198
vt 0.380988 0.465901
vt 0.508568 0.463086
vt 0.304531 0.464760
vt 0.422431 0.463007
vt 0.377912 0.462724
vt 0.309531 0.461951
vt 0.500021 0.458687
vt 0.429167 0.460250
vt 0.374417 0.460000
vt 0.314188 0.459567
vt 0.435930 0.457923
vt 0.370491 0.457721
vt 0.318583 0.457583
vt 0.490710 0.455414
vt 0.442716 0.456025
vt 0.366123 0.455877
vt 0.322798 0.455975
vt 0.449521 0.454552
vt 0.326914 0.454716
vt 0.361302 0.454458
vt 0.480686 0.453371
vt 0.331010 0.453781
vt 0.456340 0.453503
vt 0.356015 0.453457
vt 0.335170 0.453145
vt 0.463167 0.452875
vt 0.350252 0.452863
vt 0.470000 0.452667
vt 0.339473 0.452782
vt 0.344000 0.452667
vt 0.900000 0.454667
vt 0.840667 0.909333
vt 0.900000 0.909333
vt 0.840667 0.454667
vt 0.870667 0.000000
vt 0.805333 0.396000
vt 0.870667 0.454667
vt 0.728667 0.454667
vt 0.704953 0.453471
vt 0.683460 0.449988
vt 0.664156 0.444375
vt 0.647012 0.436790
vt 0.631998 0.427390
vt 0.619083 0.416333
vt 0.608238 0.403776
vt 0.728667 0.396000
vt 0.599432 0.389877
vt 0.805333 0.255333
vt 0.714681 0.395272
vt 0.702336 0.393179
vt 0.691552 0.389854
vt 0.592635 0.374792
vt 0.682247 0.385432
vt 0.674340 0.380047
vt 0.667750 0.373833
vt 0.587818 0.358679
vt 0.662396 0.366925
vt 0.658197 0.359457
vt 0.655073 0.351562
vt 0.584949 0.341696
vt 0.652941 0.343377
vt 0.651722 0.335033
vt 0.584000 0.324000
vt 0.651333 0.326667
vt 0.651978 0.315740
vt 0.585005 0.306510
vt 0.653880 0.305642
vt 0.588043 0.289799
vt 0.656990 0.296396
vt 0.661259 0.288025
vt 0.593146 0.274010
vt 0.666640 0.280552
vt 0.673083 0.274000
vt 0.600346 0.259284
vt 0.680540 0.268393
vt 0.688963 0.263753
vt 0.698302 0.260104
vt 0.708509 0.257469
vt 0.609675 0.245761
vt 0.719536 0.255871
vt 0.731333 0.255333
vt 0.805333 0.196667
vt 0.621167 0.233583
vt 0.634853 0.222892
vt 0.650765 0.213827
vt 0.668937 0.206531
vt 0.689401 0.201145
vt 0.712189 0.197810
vt 0.737333 0.196667
vt 0.805333 0.000000
vt 0.408000 0.217333
vt 0.359333 0.452667
vt 0.440000 0.284000
vt 0.517333 0.452667
vt 0.584000 0.452667
vt 0.372000 -0.000000
vt 0.306000 -0.000000
vt 0.678721 0.765722
vt 0.689333 0.766000
vt 0.704215 0.765357
vt 0.668549 0.764886
vt 0.718447 0.763414
vt 0.658812 0.763490
vt 0.649506 0.761531
vt 0.731906 0.760146
vt 0.640626 0.759007
vt 0.744469 0.755531
vt 0.632167 0.755917
vt 0.624124 0.752257
vt 0.756013 0.749546
vt 0.616494 0.748025
vt 0.766416 0.742167
vt 0.609271 0.743219
vt 0.602451 0.737836
vt 0.775556 0.733371
vt 0.596028 0.731875
vt 0.783308 0.723136
vt 0.590000 0.725333
vt 0.590000 0.660667
vt 0.597261 0.668780
vt 0.604697 0.676127
vt 0.612292 0.682719
vt 0.620025 0.688568
vt 0.627878 0.693686
vt 0.635833 0.698083
vt 0.643872 0.701773
vt 0.651975 0.704765
vt 0.660125 0.707073
vt 0.668302 0.708707
vt 0.676489 0.709679
vt 0.684667 0.710000
vt 0.789552 0.711438
vt 0.693292 0.709677
vt 0.794163 0.698253
vt 0.701167 0.708691
vt 0.708292 0.707021
vt 0.714667 0.704642
vt 0.720292 0.701532
vt 0.725166 0.697667
vt 0.797020 0.683559
vt 0.729291 0.693024
vt 0.732666 0.687580
vt 0.735291 0.681313
vt 0.798000 0.667333
vt 0.737166 0.674198
vt 0.738291 0.666212
vt 0.798000 0.513333
vt 0.738667 0.657333
vt 0.738667 0.641333
vt 0.686000 0.622667
vt 0.738667 0.608667
vt 0.673910 0.618296
vt 0.661778 0.613756
vt 0.649812 0.608906
vt 0.638222 0.603605
vt 0.726160 0.604323
vt 0.738667 0.521333
vt 0.714062 0.599917
vt 0.627215 0.597711
vt 0.702500 0.595385
vt 0.617000 0.591083
vt 0.691605 0.590667
vt 0.607785 0.583581
vt 0.681506 0.585698
vt 0.672333 0.580417
vt 0.599778 0.575062
vt 0.664216 0.574760
vt 0.593187 0.565385
vt 0.657284 0.568667
vt 0.651667 0.562073
vt 0.588222 0.554410
vt 0.647494 0.554917
vt 0.644895 0.547135
vt 0.585090 0.541996
vt 0.644000 0.538667
vt 0.584000 0.528000
vt 0.644368 0.532659
vt 0.645447 0.526991
vt 0.584603 0.518434
vt 0.647198 0.521698
vt 0.649580 0.516815
vt 0.734639 0.517627
vt 0.586376 0.509142
vt 0.730555 0.514182
vt 0.652555 0.512376
vt 0.726417 0.511010
vt 0.837364 0.511585
vt 0.840667 0.514000
vt 0.840667 0.478000
vt 0.798083 0.510651
vt 0.656083 0.508417
vt 0.834133 0.509343
vt 0.722222 0.508123
vt 0.798330 0.508262
vt 0.830989 0.507281
vt 0.589271 0.500229
vt 0.660125 0.504971
vt 0.798740 0.506156
vt 0.717972 0.505533
vt 0.827950 0.505407
vt 0.799309 0.504321
vt 0.713667 0.503250
vt 0.825032 0.503728
vt 0.664642 0.502074
vt 0.800035 0.502745
vt 0.822250 0.502250
vt 0.709305 0.501287
vt 0.800917 0.501417
vt 0.819621 0.500980
vt 0.669594 0.499760
vt 0.801951 0.500324
vt 0.704889 0.499654
vt 0.817160 0.499926
vt 0.803136 0.499457
vt 0.593234 0.491802
vt 0.814885 0.499094
vt 0.674941 0.498065
vt 0.700417 0.498365
vt 0.804469 0.498802
vt 0.812812 0.498491
vt 0.805947 0.498349
vt 0.810955 0.498124
vt 0.695889 0.497429
vt 0.807570 0.498085
vt 0.809333 0.498000
vt 0.680645 0.497022
vt 0.691305 0.496859
vt 0.686667 0.496667
vt 0.738000 0.485333
vt 0.598217 0.483968
vt 0.731473 0.480388
vt 0.739516 0.480248
vt 0.604167 0.476833
vt 0.724895 0.475886
vt 0.741404 0.475654
vt 0.834153 0.473760
vt 0.611033 0.470504
vt 0.718271 0.471823
vt 0.743677 0.471542
vt 0.828225 0.470022
vt 0.711605 0.468198
vt 0.746346 0.467901
vt 0.618765 0.465086
vt 0.822802 0.466760
vt 0.704902 0.465007
vt 0.749422 0.464724
vt 0.817802 0.463951
vt 0.627312 0.460687
vt 0.698167 0.462250
vt 0.752917 0.462000
vt 0.813145 0.461567
vt 0.691403 0.459923
vt 0.756842 0.459721
vt 0.808750 0.459583
vt 0.636623 0.457414
vt 0.684617 0.458025
vt 0.761210 0.457877
vt 0.804535 0.457975
vt 0.677812 0.456552
vt 0.800420 0.456716
vt 0.766031 0.456458
vt 0.646647 0.455371
vt 0.796323 0.455781
vt 0.670994 0.455503
vt 0.771318 0.455457
vt 0.792163 0.455145
vt 0.664166 0.454875
vt 0.777081 0.454863
vt 0.657333 0.454667
vt 0.787861 0.454782
vt 0.783333 0.454667
vt 0.870667 -0.000000
vt 0.870667 0.454667
vt 0.930000 0.454667
vt 0.930000 -0.000000
vt 0.000000 0.452667
vt 0.000000 0.907333
vt 0.065333 0.848667
vt 0.142000 0.907333
vt 0.165713 0.906137
vt 0.187207 0.902654
vt 0.206510 0.897042
vt 0.223654 0.889457
vt 0.238669 0.880057
vt 0.251583 0.869000
vt 0.262429 0.856443
vt 0.142000 0.848667
vt 0.271235 0.842543
vt 0.065333 0.708000
vt 0.155986 0.847939
vt 0.168330 0.845846
vt 0.179115 0.842521
vt 0.278031 0.827458
vt 0.188420 0.838099
vt 0.196327 0.832714
vt 0.202917 0.826500
vt 0.282849 0.811346
vt 0.208270 0.819592
vt 0.212469 0.812123
vt 0.215594 0.804229
vt 0.285717 0.794363
vt 0.217725 0.796043
vt 0.218945 0.787700
vt 0.286667 0.776667
vt 0.219333 0.779333
vt 0.218689 0.768407
vt 0.285661 0.759176
vt 0.216787 0.758309
vt 0.282623 0.742466
vt 0.213677 0.749062
vt 0.209407 0.740691
vt 0.277521 0.726677
vt 0.204027 0.733218
vt 0.197583 0.726667
vt 0.270321 0.711951
vt 0.190126 0.721059
vt 0.181704 0.716420
vt 0.172365 0.712771
vt 0.162157 0.710136
vt 0.260991 0.698428
vt 0.151131 0.708538
vt 0.139333 0.708000
vt 0.065333 0.649333
vt 0.249500 0.686250
vt 0.235814 0.675558
vt 0.219901 0.666494
vt 0.201729 0.659198
vt 0.181265 0.653812
vt 0.158478 0.650476
vt 0.133333 0.649333
vt 0.065333 0.452667
vt 0.963333 0.113717
vt 0.963333 0.244512
vt 0.996667 0.244512
vt 0.320000 0.764000
vt 0.320000 0.912079
vt 0.353333 0.912079
vt 0.963333 0.250998
vt 0.963333 0.252857
vt 0.996667 0.252857
vt 0.750667 0.889598
vt 0.750667 0.896459
vt 0.784000 0.896459
vt 0.784000 0.871589
vt 0.784000 0.879293
vt 0.817333 0.879293
vt 0.717333 0.917283
vt 0.717333 0.912410
vt 0.684000 0.912410
vt 0.320000 0.970770
vt 0.353333 0.970770
vt 0.717333 0.912255
vt 0.717333 0.917486
vt 0.750667 0.917486
vt 0.750667 0.877686
vt 0.784000 0.889598
vt 0.266667 0.925970
vt 0.266667 0.922604
vt 0.233333 0.922604
vt 0.576667 0.910730
vt 0.576667 0.510931
vt 0.543333 0.510931
vt 0.386667 0.923507
vt 0.386667 0.937831
vt 0.420000 0.937831
vt 0.900000 0.886830
vt 0.900000 0.893893
vt 0.933333 0.893893
vt 0.453333 0.891099
vt 0.453333 0.946319
vt 0.486667 0.946319
vt 0.617333 0.772464
vt 0.617333 0.766000
vt 0.584000 0.766000
vt 0.233333 0.938981
vt 0.233333 0.934664
vt 0.200000 0.934664
vt 0.353333 0.764000
vt 0.353333 0.956878
vt 0.386667 0.956878
vt 0.100000 0.921020
vt 0.100000 0.916175
vt 0.066667 0.916175
vt 0.576667 0.452667
vt 0.543333 0.452667
vt 0.650667 0.863263
vt 0.650667 0.872738
vt 0.684000 0.872738
vt 0.386667 0.950419
vt 0.420000 0.950419
vt 0.717333 0.922298
vt 0.750667 0.922298
vt 0.963333 0.254579
vt 0.996667 0.254579
vt 0.453333 0.878382
vt 0.486667 0.891099
vt 0.617333 0.779587
vt 0.584000 0.772464
vt 0.784000 0.774213
vt 0.784000 0.782866
vt 0.817333 0.782866
vt 0.266667 0.929120
vt 0.233333 0.925970
vt 0.650667 0.885535
vt 0.684000 0.885535
vt 0.453333 0.865549
vt 0.486667 0.878382
vt 0.650667 0.853912
vt 0.684000 0.863263
vt 0.617333 0.787316
vt 0.584000 0.779587
vt 0.717333 0.922054
vt 0.684000 0.917283
vt 0.900000 0.900776
vt 0.933333 0.900776
vt 0.453333 0.852715
vt 0.486667 0.865549
vt 0.233333 0.943270
vt 0.200000 0.938981
vt 0.650667 0.897142
vt 0.684000 0.897142
vt 0.286667 0.764000
vt 0.286667 0.775922
vt 0.320000 0.775922
vt 0.963333 0.256172
vt 0.996667 0.256172
vt 0.453333 0.839997
vt 0.486667 0.852715
vt 0.650667 0.844678
vt 0.684000 0.853912
vt 0.617333 0.795598
vt 0.584000 0.787316
vt 0.266667 0.932037
vt 0.233333 0.929120
vt 0.717333 0.926774
vt 0.750667 0.926774
vt 0.650667 0.835556
vt 0.684000 0.844678
vt 0.617333 0.804378
vt 0.584000 0.795598
vt 0.750667 0.766000
vt 0.750667 0.779081
vt 0.784000 0.779081
vt 0.900000 0.907475
vt 0.933333 0.907475
vt 0.100000 0.911596
vt 0.066667 0.911596
vt 0.933333 0.793167
vt 0.933333 0.858187
vt 0.966667 0.858187
vt 0.650667 0.907441
vt 0.684000 0.907441
vt 0.286667 0.789196
vt 0.320000 0.789196
vt 0.717333 0.930998
vt 0.750667 0.930998
vt 0.963333 0.257646
vt 0.996667 0.257646
vt 0.650667 0.826541
vt 0.684000 0.835556
vt 0.617333 0.813602
vt 0.584000 0.804378
vt 0.233333 0.947545
vt 0.200000 0.943270
vt 0.717333 0.926716
vt 0.684000 0.922054
vt 0.750667 0.791832
vt 0.784000 0.791832
vt 0.453333 0.827511
vt 0.486667 0.839997
vt 0.617333 0.823218
vt 0.584000 0.813602
vt 0.784000 0.766000
vt 0.817333 0.774213
vt 0.266667 0.934703
vt 0.233333 0.932037
vt 0.963333 -0.000000
vt 0.963333 0.010551
vt 0.996667 0.010551
vt 0.650667 0.817628
vt 0.684000 0.826541
vt 0.617333 0.833170
vt 0.584000 0.823218
vt 0.750667 0.804167
vt 0.784000 0.804167
vt 0.717333 0.935054
vt 0.750667 0.935054
vt 0.963333 0.259008
vt 0.996667 0.259008
vt 0.453333 0.815374
vt 0.486667 0.827511
vt 0.650667 0.808811
vt 0.684000 0.817628
vt 0.617333 0.843406
vt 0.584000 0.833170
vt 0.784000 0.828783
vt 0.784000 0.837703
vt 0.817333 0.837703
vt 0.900000 0.913987
vt 0.933333 0.913987
vt 0.233333 0.951820
vt 0.200000 0.947545
vt 0.266667 0.937100
vt 0.233333 0.934703
vt 0.750667 0.816002
vt 0.784000 0.816002
vt 0.963333 0.021729
vt 0.996667 0.021729
vt 0.286667 0.803784
vt 0.320000 0.803784
vt 0.453333 0.803703
vt 0.486667 0.815374
vt 0.650667 0.800087
vt 0.684000 0.808811
vt 0.617333 0.853871
vt 0.584000 0.843406
vt 0.717333 0.939025
vt 0.750667 0.939025
vt 0.100000 0.907333
vt 0.066667 0.907333
vt 0.617333 0.864512
vt 0.584000 0.853871
vt 0.717333 0.931265
vt 0.684000 0.926716
vt 0.750667 0.827251
vt 0.784000 0.827251
vt 0.963333 0.033488
vt 0.996667 0.033488
vt 0.900000 0.920310
vt 0.933333 0.920310
vt 0.650667 0.791448
vt 0.684000 0.800087
vt 0.717333 0.952472
vt 0.717333 0.957281
vt 0.750667 0.957281
vt 0.750667 0.837830
vt 0.784000 0.837830
vt 0.963333 0.260268
vt 0.996667 0.260268
vt 0.453333 0.792613
vt 0.486667 0.803703
vt 0.650667 0.782891
vt 0.684000 0.791448
vt 0.900000 0.926440
vt 0.900000 0.935542
vt 0.933333 0.935542
vt 0.266667 0.939212
vt 0.233333 0.937100
vt 0.617333 0.929659
vt 0.584000 0.864512
vt 0.933333 0.926440
vt 0.750667 0.847652
vt 0.784000 0.847652
vt 0.963333 0.045782
vt 0.996667 0.045782
vt 0.717333 0.942994
vt 0.750667 0.942994
vt 0.963333 0.261434
vt 0.996667 0.261434
vt 0.453333 0.782222
vt 0.486667 0.792613
vt 0.650667 0.774410
vt 0.684000 0.782891
vt 0.286667 0.819650
vt 0.320000 0.819650
vt 0.717333 0.947045
vt 0.750667 0.952472
vt 0.266667 0.941020
vt 0.233333 0.939212
vt 0.750667 0.947045
vt 0.286667 0.836754
vt 0.320000 0.836754
vt 0.966667 0.793167
vt 0.966667 0.454667
vt 0.933333 0.454667
vt 0.717333 0.935695
vt 0.684000 0.931265
vt 0.750667 0.856635
vt 0.784000 0.856635
vt 0.963333 0.058568
vt 0.996667 0.058568
vt 0.650667 0.766000
vt 0.684000 0.774410
vt 0.286667 0.855060
vt 0.320000 0.855060
vt 0.166667 0.959568
vt 0.166667 0.907333
vt 0.133333 0.907333
vt 0.750667 0.864691
vt 0.784000 0.864691
vt 0.100000 0.907333
vt 0.100000 0.959712
vt 0.133333 0.959712
vt 0.266667 0.945322
vt 0.266667 0.944019
vt 0.233333 0.944019
vt 0.453333 0.772646
vt 0.486667 0.782222
vt 0.166667 0.907333
vt 0.166667 0.955478
vt 0.200000 0.955478
vt 0.286667 0.874529
vt 0.320000 0.874529
vt 0.933333 0.840822
vt 0.933333 0.454667
vt 0.900000 0.454667
vt 0.266667 0.942507
vt 0.233333 0.941020
vt 0.684000 0.876476
vt 0.684000 0.886697
vt 0.717333 0.886697
vt 0.930000 0.000000
vt 0.930000 0.338500
vt 0.963333 0.338500
vt 0.286667 0.895125
vt 0.320000 0.895125
vt 0.750667 0.871737
vt 0.784000 0.871737
vt 0.684000 0.866460
vt 0.717333 0.876476
vt 0.233333 0.942507
vt 0.286667 0.916808
vt 0.320000 0.916808
vt 0.750667 0.877686
vt 0.784000 0.877686
vt 0.684000 0.856659
vt 0.717333 0.866460
vt 0.286667 0.939543
vt 0.286667 0.999572
vt 0.320000 0.999572
vt 0.650667 0.928591
vt 0.650667 0.803579
vt 0.617333 0.803579
vt 0.717333 0.953835
vt 0.717333 0.949308
vt 0.684000 0.949308
vt 0.453333 0.764000
vt 0.486667 0.772646
vt 0.320000 0.939543
vt 0.684000 0.847085
vt 0.717333 0.856659
vt 0.033333 0.907333
vt 0.033333 0.965009
vt 0.066667 0.965009
vt 0.650667 0.783270
vt 0.617333 0.783270
vt 0.717333 0.940000
vt 0.684000 0.935695
vt 0.486667 0.764000
vt 0.486667 0.931032
vt 0.520000 0.931032
vt 0.100000 0.964871
vt 0.100000 0.958151
vt 0.066667 0.958151
vt 0.684000 0.837748
vt 0.717333 0.847085
vt 0.650667 0.766000
vt 0.784000 0.861897
vt 0.817333 0.871589
vt 0.717333 0.944175
vt 0.684000 0.944175
vt 0.684000 0.828659
vt 0.717333 0.837748
vt 0.386667 0.764000
vt 0.386667 0.778957
vt 0.420000 0.778957
vt 0.684000 0.940000
vt 0.100000 0.952853
vt 0.066667 0.952853
vt 0.684000 0.819829
vt 0.717333 0.828659
vt 0.386667 0.794449
vt 0.420000 0.794449
vt 0.100000 0.947470
vt 0.066667 0.947470
vt 0.684000 0.811270
vt 0.717333 0.819829
vt 0.386667 0.810358
vt 0.420000 0.810358
vt 0.784000 0.854373
vt 0.817333 0.861897
vt 0.784000 0.819624
vt 0.817333 0.828783
vt 0.684000 0.802992
vt 0.717333 0.811270
vt 0.386667 0.826567
vt 0.420000 0.826567
vt 0.100000 0.942051
vt 0.066667 0.942051
vt 0.684000 0.795005
vt 0.717333 0.802992
vt 0.386667 0.842957
vt 0.420000 0.842957
vt 0.900000 0.840822
vt 0.900000 0.848907
vt 0.933333 0.848907
vt 0.930000 0.360419
vt 0.930000 0.428100
vt 0.963333 0.428100
vt 0.233333 0.912131
vt 0.233333 0.907333
vt 0.200000 0.907333
vt 0.100000 0.936646
vt 0.066667 0.936646
vt 0.717333 0.892001
vt 0.717333 0.886697
vt 0.684000 0.886697
vt 0.684000 0.787321
vt 0.717333 0.795005
vt 0.784000 0.810340
vt 0.817333 0.819624
vt 0.386667 0.859410
vt 0.420000 0.859410
vt 0.784000 0.846270
vt 0.817333 0.854373
vt 0.684000 0.779951
vt 0.717333 0.787321
vt 0.750667 0.885470
vt 0.750667 0.766000
vt 0.717333 0.766000
vt 0.900000 0.856829
vt 0.933333 0.856829
vt 0.717333 0.897230
vt 0.684000 0.892001
vt 0.930000 0.348415
vt 0.963333 0.360419
vt 0.233333 0.916812
vt 0.200000 0.912131
vt 0.963333 0.071799
vt 0.996667 0.071799
vt 0.684000 0.772489
vt 0.717333 0.779951
vt 0.930000 0.338500
vt 0.963333 0.348415
vt 0.100000 0.931306
vt 0.066667 0.931306
vt 0.717333 0.885470
vt 0.717333 0.893212
vt 0.750667 0.893212
vt 0.717333 0.902378
vt 0.684000 0.897230
vt 0.784000 0.953188
vt 0.784000 0.962863
vt 0.817333 0.962863
vt 0.784000 0.801043
vt 0.817333 0.810340
vt 0.963333 0.085431
vt 0.996667 0.085431
vt 0.266667 0.911387
vt 0.266667 0.907333
vt 0.233333 0.907333
vt 0.684000 0.766000
vt 0.717333 0.772489
vt 0.386667 0.875810
vt 0.420000 0.875810
vt 0.900000 0.864585
vt 0.933333 0.864585
vt 0.681242 0.907441
vt 0.650667 0.907441
vt 0.650667 0.940774
vt 0.750667 0.946869
vt 0.750667 0.952870
vt 0.784000 0.952870
vt 0.784000 0.943683
vt 0.817333 0.953188
vt 0.233333 0.921391
vt 0.200000 0.916812
vt 0.963333 0.246834
vt 0.996667 0.246834
vt 0.750667 0.940842
vt 0.784000 0.946869
vt 0.784000 0.934395
vt 0.817333 0.943683
vt 0.717333 0.900201
vt 0.750667 0.900201
vt 0.100000 0.926080
vt 0.066667 0.926080
vt 0.750667 0.934771
vt 0.784000 0.940842
vt 0.784000 0.925369
vt 0.817333 0.934395
vt 0.266667 0.915295
vt 0.233333 0.911387
vt 0.900000 0.872173
vt 0.933333 0.872173
vt 0.750667 0.928639
vt 0.784000 0.934771
vt 0.233333 0.925883
vt 0.200000 0.921391
vt 0.717333 0.907440
vt 0.684000 0.902378
vt 0.386667 0.892038
vt 0.420000 0.892038
vt 0.784000 0.916652
vt 0.817333 0.925369
vt 0.784000 0.791847
vt 0.817333 0.801043
vt 0.963333 0.099419
vt 0.996667 0.099419
vt 0.963333 0.248993
vt 0.996667 0.248993
vt 0.750667 0.922429
vt 0.784000 0.928639
vt 0.784000 0.908288
vt 0.817333 0.916652
vt 0.266667 0.919040
vt 0.233333 0.915295
vt 0.717333 0.906521
vt 0.750667 0.906521
vt 0.750667 0.916123
vt 0.784000 0.922429
vt 0.784000 0.900325
vt 0.817333 0.908288
vt 0.817333 0.846270
vt 0.900000 0.879589
vt 0.933333 0.879589
vt 0.750667 0.909704
vt 0.784000 0.916123
vt 0.233333 0.930302
vt 0.200000 0.925883
vt 0.386667 0.907976
vt 0.420000 0.907976
vt 0.066667 0.921020
vt 0.784000 0.892808
vt 0.817333 0.900325
vt 0.996667 0.113717
vt 0.750667 0.912255
vt 0.996667 0.250998
vt 0.750667 0.903155
vt 0.784000 0.909704
vt 0.966667 0.454667
vt 0.966667 0.707317
vt 1.000000 0.707317
vt 0.784000 0.885782
vt 0.817333 0.892808
vt 0.817333 0.791847
vt 0.684000 0.907440
vt 0.784000 0.903155
vt 0.033333 0.966611
vt 0.033333 0.907333
vt 0.000000 0.907333
vt 0.233333 0.919040
vt 0.420000 0.923507
vt 0.933333 0.886830
vt 0.453333 0.949834
vt 0.453333 0.764000
vt 0.420000 0.764000
vt 0.817333 0.885782
vt 0.200000 0.930302
vt 0.353333 0.764000
vt 0.784000 0.877686
vt 0.543333 0.910730
vt 0.386667 0.764000
vt 0.320000 0.764000
vt 0.784000 0.766000
vt 0.966667 0.793167
vt 0.817333 0.766000
vt 0.996667 -0.000000
vt 0.200000 0.951820
vt 0.584000 0.929659
vt 0.933333 0.793167
vt 0.684000 0.766000
vt 0.133333 0.959568
vt 0.133333 0.907333
vt 0.233333 0.945322
vt 0.200000 0.907333
vt 0.900000 0.840822
vt 0.963333 0.000000
vt 0.617333 0.928591
vt 0.684000 0.953835
vt 0.066667 0.907333
vt 0.520000 0.764000
vt 0.066667 0.964871
vt 0.420000 0.764000
vt 0.933333 0.840822
vt 0.717333 0.885470
vt 0.963333 0.338500
vt 0.750667 0.885470
vt 0.717333 0.766000
vt 0.681242 0.940774
vt 1.000000 0.454667
vt 0.000000 0.966611
vt 0.420000 0.949834
s 0
f 6/1/1 4/2/1 5/3/1
f 6/1/1 3/4/1 4/2/1
f 3/4/1 1/5/1 2/6/1
f 3/4/1 8/7/1 1/5/1
f 6/1/1 8/7/1 3/4/1
f 7/8/1 8/7/1 6/1/1
f 47/9/1 45/10/1 46/11/1
f 48/12/1 45/10/1 47/9/1
f 48/12/1 44/13/1 45/10/1
f 49/14/1 44/13/1 48/12/1
f 50/15/1 44/13/1 49/14/1
f 50/15/1 43/16/1 44/13/1
f 51/17/1 43/16/1 50/15/1
f 51/17/1 42/18/1 43/16/1
f 52/19/1 42/18/1 51/17/1
f 53/20/1 42/18/1 52/19/1
f 53/20/1 41/21/1 42/18/1
f 54/22/1 41/21/1 53/20/1
f 54/22/1 40/23/1 41/21/1
f 55/24/1 40/23/1 54/22/1
f 56/25/1 40/23/1 55/24/1
f 56/25/1 39/26/1 40/23/1
f 57/27/1 39/26/1 56/25/1
f 57/27/1 38/28/1 39/26/1
f 58/29/1 38/28/1 57/27/1
f 59/30/1 60/31/1 58/29/1
f 60/31/1 61/32/1 58/29/1
f 61/32/1 62/33/1 58/29/1
f 62/33/1 63/34/1 58/29/1
f 63/34/1 64/35/1 58/29/1
f 64/35/1 65/36/1 58/29/1
f 65/36/1 66/37/1 58/29/1
f 66/37/1 67/38/1 58/29/1
f 67/38/1 68/39/1 58/29/1
f 68/39/1 69/40/1 58/29/1
f 69/40/1 38/28/1 58/29/1
f 69/40/1 70/41/1 38/28/1
f 70/41/1 71/42/1 38/28/1
f 71/42/1 37/43/1 38/28/1
f 71/42/1 72/44/1 37/43/1
f 72/44/1 36/45/1 37/43/1
f 73/46/1 36/45/1 72/44/1
f 74/47/1 36/45/1 73/46/1
f 75/48/1 36/45/1 74/47/1
f 76/49/1 36/45/1 75/48/1
f 77/50/1 36/45/1 76/49/1
f 77/50/1 35/51/1 36/45/1
f 78/52/1 35/51/1 77/50/1
f 79/53/1 35/51/1 78/52/1
f 80/54/1 35/51/1 79/53/1
f 80/54/1 34/55/1 35/51/1
f 81/56/1 34/55/1 80/54/1
f 82/57/1 34/55/1 81/56/1
f 82/57/1 33/58/1 34/55/1
f 83/59/1 33/58/1 82/57/1
f 84/60/1 33/58/1 83/59/1
f 85/61/1 182/62/1 84/60/1
f 182/62/1 33/58/1 84/60/1
f 86/63/1 182/62/1 85/61/1
f 87/64/1 182/62/1 86/63/1
f 88/65/1 182/62/1 87/64/1
f 89/66/1 182/62/1 88/65/1
f 89/66/1 181/67/1 182/62/1
f 146/68/1 33/58/1 182/62/1
f 89/66/1 180/69/1 181/67/1
f 90/70/1 180/69/1 89/66/1
f 90/70/1 179/71/1 180/69/1
f 91/72/1 179/71/1 90/70/1
f 91/72/1 178/73/1 179/71/1
f 92/74/1 178/73/1 91/72/1
f 92/74/1 177/75/1 178/73/1
f 92/74/1 176/76/1 177/75/1
f 93/77/1 176/76/1 92/74/1
f 93/77/1 175/78/1 176/76/1
f 94/79/1 175/78/1 93/77/1
f 94/79/1 174/80/1 175/78/1
f 94/79/1 173/81/1 174/80/1
f 95/82/1 173/81/1 94/79/1
f 95/82/1 172/83/1 173/81/1
f 95/82/1 171/84/1 172/83/1
f 96/85/1 171/84/1 95/82/1
f 96/85/1 170/86/1 171/84/1
f 97/87/1 170/86/1 96/85/1
f 97/87/1 169/88/1 170/86/1
f 97/87/1 168/89/1 169/88/1
f 98/90/1 168/89/1 97/87/1
f 98/90/1 167/91/1 168/89/1
f 98/90/1 166/92/1 167/91/1
f 147/93/1 33/58/1 146/68/1
f 99/94/1 166/92/1 98/90/1
f 148/95/1 33/58/1 147/93/1
f 99/94/1 165/96/1 166/92/1
f 149/97/1 33/58/1 148/95/1
f 10/98/1 145/99/1 9/100/1
f 149/97/1 32/101/1 33/58/1
f 99/94/1 164/102/1 165/96/1
f 11/103/1 145/99/1 10/98/1
f 150/104/1 32/101/1 149/97/1
f 150/104/1 31/105/1 32/101/1
f 12/106/1 145/99/1 11/103/1
f 100/107/1 164/102/1 99/94/1
f 100/107/1 163/108/1 164/102/1
f 150/104/1 30/109/1 31/105/1
f 151/110/1 30/109/1 150/104/1
f 13/111/1 145/99/1 12/106/1
f 151/110/1 29/112/1 30/109/1
f 152/113/1 29/112/1 151/110/1
f 14/114/1 145/99/1 13/111/1
f 100/107/1 162/115/1 163/108/1
f 152/113/1 28/116/1 29/112/1
f 15/117/1 145/99/1 14/114/1
f 153/118/1 28/116/1 152/113/1
f 153/118/1 27/119/1 28/116/1
f 16/120/1 145/99/1 15/117/1
f 100/107/1 161/121/1 162/115/1
f 153/118/1 26/122/1 27/119/1
f 154/123/1 26/122/1 153/118/1
f 17/124/1 145/99/1 16/120/1
f 154/123/1 25/125/1 26/122/1
f 101/126/1 161/121/1 100/107/1
f 18/127/1 145/99/1 17/124/1
f 101/126/1 160/128/1 161/121/1
f 155/129/1 25/125/1 154/123/1
f 155/129/1 24/130/1 25/125/1
f 19/131/1 145/99/1 18/127/1
f 155/129/1 23/132/1 24/130/1
f 20/133/1 145/99/1 19/131/1
f 156/134/1 23/132/1 155/129/1
f 156/134/1 22/135/1 23/132/1
f 21/136/1 145/99/1 20/133/1
f 156/134/1 21/136/1 22/135/1
f 101/126/1 159/137/1 160/128/1
f 156/134/1 145/99/1 21/136/1
f 157/138/1 145/99/1 156/134/1
f 101/126/1 158/139/1 159/137/1
f 158/139/1 145/99/1 157/138/1
f 101/126/1 121/140/1 158/139/1
f 121/140/1 145/99/1 158/139/1
f 102/141/1 121/140/1 101/126/1
f 102/141/1 120/142/1 121/140/1
f 122/143/1 145/99/1 121/140/1
f 103/144/1 120/142/1 102/141/1
f 103/144/1 119/145/1 120/142/1
f 123/146/1 145/99/1 122/143/1
f 123/146/1 144/147/1 145/99/1
f 104/148/1 119/145/1 103/144/1
f 104/148/1 118/149/1 119/145/1
f 124/150/1 144/147/1 123/146/1
f 124/150/1 143/151/1 144/147/1
f 104/148/1 117/152/1 118/149/1
f 125/153/1 143/151/1 124/150/1
f 105/154/1 117/152/1 104/148/1
f 125/153/1 142/155/1 143/151/1
f 105/154/1 116/156/1 117/152/1
f 126/157/1 142/155/1 125/153/1
f 126/157/1 141/158/1 142/155/1
f 106/159/1 116/156/1 105/154/1
f 106/159/1 115/160/1 116/156/1
f 127/161/1 141/158/1 126/157/1
f 127/161/1 140/162/1 141/158/1
f 106/159/1 114/163/1 115/160/1
f 128/164/1 140/162/1 127/161/1
f 128/164/1 139/165/1 140/162/1
f 107/166/1 114/163/1 106/159/1
f 107/166/1 113/167/1 114/163/1
f 129/168/1 139/165/1 128/164/1
f 129/168/1 138/169/1 139/165/1
f 107/166/1 112/170/1 113/167/1
f 129/168/1 137/171/1 138/169/1
f 130/172/1 137/171/1 129/168/1
f 108/173/1 112/170/1 107/166/1
f 130/172/1 136/174/1 137/171/1
f 108/173/1 111/175/1 112/170/1
f 131/176/1 136/174/1 130/172/1
f 131/176/1 135/177/1 136/174/1
f 108/173/1 110/178/1 111/175/1
f 132/179/1 135/177/1 131/176/1
f 109/180/1 110/178/1 108/173/1
f 132/179/1 134/181/1 135/177/1
f 133/182/1 134/181/1 132/179/1
f 185/183/1 183/184/1 184/185/1
f 185/183/1 186/186/1 183/184/1
f 188/187/1 216/188/1 187/189/1
f 216/188/1 215/190/1 187/189/1
f 216/188/1 214/191/1 215/190/1
f 216/188/1 213/192/1 214/191/1
f 216/188/1 212/193/1 213/192/1
f 216/188/1 211/194/1 212/193/1
f 216/188/1 210/195/1 211/194/1
f 216/188/1 209/196/1 210/195/1
f 216/188/1 208/197/1 209/196/1
f 216/188/1 217/198/1 208/197/1
f 217/198/1 207/199/1 208/197/1
f 188/187/1 242/200/1 216/188/1
f 218/201/1 207/199/1 217/198/1
f 219/202/1 207/199/1 218/201/1
f 220/203/1 207/199/1 219/202/1
f 220/203/1 206/204/1 207/199/1
f 221/205/1 206/204/1 220/203/1
f 222/206/1 206/204/1 221/205/1
f 223/207/1 206/204/1 222/206/1
f 223/207/1 205/208/1 206/204/1
f 224/209/1 205/208/1 223/207/1
f 225/210/1 205/208/1 224/209/1
f 226/211/1 205/208/1 225/210/1
f 226/211/1 204/212/1 205/208/1
f 227/213/1 204/212/1 226/211/1
f 228/214/1 204/212/1 227/213/1
f 228/214/1 203/215/1 204/212/1
f 229/216/1 203/215/1 228/214/1
f 230/217/1 203/215/1 229/216/1
f 230/217/1 202/218/1 203/215/1
f 231/219/1 202/218/1 230/217/1
f 231/219/1 201/220/1 202/218/1
f 232/221/1 201/220/1 231/219/1
f 233/222/1 201/220/1 232/221/1
f 233/222/1 200/223/1 201/220/1
f 234/224/1 200/223/1 233/222/1
f 235/225/1 200/223/1 234/224/1
f 235/225/1 199/226/1 200/223/1
f 236/227/1 199/226/1 235/225/1
f 237/228/1 199/226/1 236/227/1
f 238/229/1 199/226/1 237/228/1
f 239/230/1 199/226/1 238/229/1
f 239/230/1 198/231/1 199/226/1
f 240/232/1 198/231/1 239/230/1
f 241/233/1 198/231/1 240/232/1
f 188/187/1 190/234/1 242/200/1
f 190/234/1 241/233/1 242/200/1
f 190/234/1 198/231/1 241/233/1
f 190/234/1 197/235/1 198/231/1
f 190/234/1 196/236/1 197/235/1
f 190/234/1 195/237/1 196/236/1
f 190/234/1 194/238/1 195/237/1
f 190/234/1 193/239/1 194/238/1
f 190/234/1 192/240/1 193/239/1
f 190/234/1 191/241/1 192/240/1
f 188/187/1 189/242/1 190/234/1
f 248/243/2 247/3/2 246/244/2
f 248/243/2 246/244/2 245/245/2
f 245/245/2 244/246/2 243/247/2
f 245/245/2 243/247/2 250/248/2
f 248/243/2 245/245/2 250/248/2
f 249/249/2 248/243/2 250/248/2
f 289/250/2 288/251/2 287/252/2
f 290/253/2 289/250/2 287/252/2
f 290/253/2 287/252/2 286/254/2
f 291/255/2 290/253/2 286/254/2
f 292/256/2 291/255/2 286/254/2
f 292/256/2 286/254/2 285/257/2
f 293/258/2 292/256/2 285/257/2
f 293/258/2 285/257/2 284/259/2
f 294/260/2 293/258/2 284/259/2
f 295/261/2 294/260/2 284/259/2
f 295/261/2 284/259/2 283/262/2
f 296/263/2 295/261/2 283/262/2
f 296/263/2 283/262/2 282/264/2
f 297/265/2 296/263/2 282/264/2
f 298/266/2 297/265/2 282/264/2
f 298/266/2 282/264/2 281/267/2
f 299/268/2 298/266/2 281/267/2
f 299/268/2 281/267/2 280/269/2
f 300/270/2 299/268/2 280/269/2
f 301/271/2 300/270/2 302/272/2
f 302/272/2 300/270/2 303/273/2
f 303/273/2 300/270/2 304/274/2
f 304/274/2 300/270/2 305/275/2
f 305/275/2 300/270/2 306/276/2
f 306/276/2 300/270/2 307/277/2
f 307/277/2 300/270/2 308/278/2
f 308/278/2 300/270/2 309/279/2
f 309/279/2 300/270/2 310/280/2
f 310/280/2 300/270/2 311/281/2
f 311/281/2 300/270/2 280/269/2
f 311/281/2 280/269/2 312/282/2
f 312/282/2 280/269/2 313/283/2
f 313/283/2 280/269/2 279/284/2
f 313/283/2 279/284/2 314/285/2
f 314/285/2 279/284/2 278/286/2
f 315/287/2 314/285/2 278/286/2
f 316/288/2 315/287/2 278/286/2
f 317/289/2 316/288/2 278/286/2
f 318/290/2 317/289/2 278/286/2
f 319/291/2 318/290/2 278/286/2
f 319/291/2 278/286/2 277/292/2
f 320/293/2 319/291/2 277/292/2
f 321/294/2 320/293/2 277/292/2
f 322/295/2 321/294/2 277/292/2
f 322/295/2 277/292/2 276/296/2
f 323/297/2 322/295/2 276/296/2
f 324/298/2 323/297/2 276/296/2
f 324/298/2 276/296/2 275/299/2
f 325/300/2 324/298/2 275/299/2
f 326/301/2 325/300/2 275/299/2
f 327/302/2 326/301/2 424/303/2
f 424/303/2 326/301/2 275/299/2
f 328/304/2 327/302/2 424/303/2
f 329/305/2 328/304/2 424/303/2
f 330/306/2 329/305/2 424/303/2
f 331/307/2 330/306/2 424/303/2
f 331/307/2 424/303/2 423/308/2
f 388/309/2 424/303/2 275/299/2
f 331/307/2 423/308/2 422/310/2
f 332/311/2 331/307/2 422/310/2
f 332/311/2 422/310/2 421/312/2
f 333/313/2 332/311/2 421/312/2
f 333/313/2 421/312/2 420/314/2
f 334/315/2 333/313/2 420/314/2
f 334/315/2 420/314/2 419/316/2
f 334/315/2 419/316/2 418/317/2
f 335/318/2 334/315/2 418/317/2
f 335/318/2 418/317/2 417/319/2
f 336/320/2 335/318/2 417/319/2
f 336/320/2 417/319/2 416/321/2
f 336/320/2 416/321/2 415/322/2
f 337/323/2 336/320/2 415/322/2
f 337/323/2 415/322/2 414/324/2
f 337/323/2 414/324/2 413/325/2
f 338/326/2 337/323/2 413/325/2
f 338/326/2 413/325/2 412/327/2
f 339/328/2 338/326/2 412/327/2
f 339/328/2 412/327/2 411/329/2
f 339/328/2 411/329/2 410/330/2
f 340/331/2 339/328/2 410/330/2
f 340/331/2 410/330/2 409/332/2
f 340/331/2 409/332/2 408/333/2
f 389/334/2 388/309/2 275/299/2
f 341/335/2 340/331/2 408/333/2
f 390/336/2 389/334/2 275/299/2
f 341/335/2 408/333/2 407/337/2
f 391/338/2 390/336/2 275/299/2
f 252/339/2 251/340/2 387/341/2
f 391/338/2 275/299/2 274/342/2
f 341/335/2 407/337/2 406/343/2
f 253/344/2 252/339/2 387/341/2
f 392/345/2 391/338/2 274/342/2
f 392/345/2 274/342/2 273/346/2
f 254/347/2 253/344/2 387/341/2
f 342/348/2 341/335/2 406/343/2
f 342/348/2 406/343/2 405/349/2
f 392/345/2 273/346/2 272/350/2
f 393/351/2 392/345/2 272/350/2
f 255/352/2 254/347/2 387/341/2
f 393/351/2 272/350/2 271/353/2
f 394/354/2 393/351/2 271/353/2
f 256/355/2 255/352/2 387/341/2
f 342/348/2 405/349/2 404/356/2
f 394/354/2 271/353/2 270/357/2
f 257/358/2 256/355/2 387/341/2
f 395/359/2 394/354/2 270/357/2
f 395/359/2 270/357/2 269/360/2
f 258/361/2 257/358/2 387/341/2
f 342/348/2 404/356/2 403/362/2
f 395/359/2 269/360/2 268/363/2
f 396/364/2 395/359/2 268/363/2
f 259/365/2 258/361/2 387/341/2
f 396/364/2 268/363/2 267/366/2
f 343/367/2 342/348/2 403/362/2
f 260/368/2 259/365/2 387/341/2
f 343/367/2 403/362/2 402/369/2
f 397/370/2 396/364/2 267/366/2
f 397/370/2 267/366/2 266/371/2
f 261/372/2 260/368/2 387/341/2
f 397/370/2 266/371/2 265/373/2
f 262/374/2 261/372/2 387/341/2
f 398/375/2 397/370/2 265/373/2
f 398/375/2 265/373/2 264/376/2
f 263/377/2 262/374/2 387/341/2
f 398/375/2 264/376/2 263/377/2
f 343/367/2 402/369/2 401/378/2
f 398/375/2 263/377/2 387/341/2
f 399/379/2 398/375/2 387/341/2
f 343/367/2 401/378/2 400/380/2
f 400/380/2 399/379/2 387/341/2
f 343/367/2 400/380/2 363/381/2
f 363/381/2 400/380/2 387/341/2
f 344/382/2 343/367/2 363/381/2
f 344/382/2 363/381/2 362/383/2
f 364/384/2 363/381/2 387/341/2
f 345/385/2 344/382/2 362/383/2
f 345/385/2 362/383/2 361/386/2
f 365/387/2 364/384/2 387/341/2
f 365/387/2 387/341/2 386/388/2
f 346/389/2 345/385/2 361/386/2
f 346/389/2 361/386/2 360/390/2
f 366/391/2 365/387/2 386/388/2
f 366/391/2 386/388/2 385/392/2
f 346/389/2 360/390/2 359/393/2
f 367/394/2 366/391/2 385/392/2
f 347/395/2 346/389/2 359/393/2
f 367/394/2 385/392/2 384/396/2
f 347/395/2 359/393/2 358/397/2
f 368/398/2 367/394/2 384/396/2
f 368/398/2 384/396/2 383/399/2
f 348/400/2 347/395/2 358/397/2
f 348/400/2 358/397/2 357/401/2
f 369/402/2 368/398/2 383/399/2
f 369/402/2 383/399/2 382/403/2
f 348/400/2 357/401/2 356/404/2
f 370/405/2 369/402/2 382/403/2
f 370/405/2 382/403/2 381/406/2
f 349/407/2 348/400/2 356/404/2
f 349/407/2 356/404/2 355/408/2
f 371/409/2 370/405/2 381/406/2
f 371/409/2 381/406/2 380/410/2
f 349/407/2 355/408/2 354/411/2
f 371/409/2 380/410/2 379/412/2
f 372/413/2 371/409/2 379/412/2
f 350/414/2 349/407/2 354/411/2
f 372/413/2 379/412/2 378/415/2
f 350/414/2 354/411/2 353/416/2
f 373/417/2 372/413/2 378/415/2
f 373/417/2 378/415/2 377/418/2
f 350/414/2 353/416/2 352/419/2
f 374/420/2 373/417/2 377/418/2
f 351/421/2 350/414/2 352/419/2
f 374/420/2 377/418/2 376/422/2
f 375/423/2 374/420/2 376/422/2
f 427/424/2 426/425/2 425/426/2
f 427/424/2 425/426/2 428/427/2
f 430/428/2 429/429/2 458/430/2
f 458/430/2 429/429/2 457/431/2
f 458/430/2 457/431/2 456/432/2
f 458/430/2 456/432/2 455/433/2
f 458/430/2 455/433/2 454/434/2
f 458/430/2 454/434/2 453/435/2
f 458/430/2 453/435/2 452/436/2
f 458/430/2 452/436/2 451/437/2
f 458/430/2 451/437/2 450/438/2
f 458/430/2 450/438/2 459/439/2
f 459/439/2 450/438/2 449/440/2
f 430/428/2 458/430/2 484/441/2
f 460/442/2 459/439/2 449/440/2
f 461/443/2 460/442/2 449/440/2
f 462/444/2 461/443/2 449/440/2
f 462/444/2 449/440/2 448/445/2
f 463/446/2 462/444/2 448/445/2
f 464/447/2 463/446/2 448/445/2
f 465/448/2 464/447/2 448/445/2
f 465/448/2 448/445/2 447/449/2
f 466/450/2 465/448/2 447/449/2
f 467/451/2 466/450/2 447/449/2
f 468/452/2 467/451/2 447/449/2
f 468/452/2 447/449/2 446/453/2
f 469/454/2 468/452/2 446/453/2
f 470/455/2 469/454/2 446/453/2
f 470/455/2 446/453/2 445/456/2
f 471/457/2 470/455/2 445/456/2
f 472/458/2 471/457/2 445/456/2
f 472/458/2 445/456/2 444/459/2
f 473/460/2 472/458/2 444/459/2
f 473/460/2 444/459/2 443/461/2
f 474/462/2 473/460/2 443/461/2
f 475/463/2 474/462/2 443/461/2
f 475/463/2 443/461/2 442/464/2
f 476/465/2 475/463/2 442/464/2
f 477/466/2 476/465/2 442/464/2
f 477/466/2 442/464/2 441/467/2
f 478/468/2 477/466/2 441/467/2
f 479/469/2 478/468/2 441/467/2
f 480/470/2 479/469/2 441/467/2
f 481/471/2 480/470/2 441/467/2
f 481/471/2 441/467/2 440/472/2
f 482/473/2 481/471/2 440/472/2
f 483/474/2 482/473/2 440/472/2
f 430/428/2 484/441/2 432/475/2
f 432/475/2 484/441/2 483/474/2
f 432/475/2 483/474/2 440/472/2
f 432/475/2 440/472/2 439/476/2
f 432/475/2 439/476/2 438/477/2
f 432/475/2 438/477/2 437/478/2
f 432/475/2 437/478/2 436/479/2
f 432/475/2 436/479/2 435/480/2
f 432/475/2 435/480/2 434/481/2
f 432/475/2 434/481/2 433/482/2
f 430/428/2 432/475/2 431/483/2
f 34/484/3 33/485/3 275/486/3
f 3/487/4 2/488/4 244/489/4
f 30/490/5 29/491/5 271/492/5
f 83/493/6 82/494/6 324/495/6
f 230/496/7 229/497/7 471/498/7
f 152/499/8 151/500/8 393/501/8
f 2/488/9 1/502/9 243/503/9
f 141/504/10 140/505/10 382/506/10
f 84/507/11 83/493/11 325/508/11
f 14/509/12 13/510/12 255/511/12
f 1/512/13 8/513/13 250/514/13
f 203/515/14 202/516/14 444/517/14
f 115/518/15 114/519/15 356/520/15
f 85/521/16 84/522/16 326/523/16
f 231/524/17 230/525/17 472/526/17
f 128/527/18 127/528/18 369/529/18
f 7/530/19 6/531/19 248/532/19
f 163/533/20 162/534/20 404/535/20
f 8/513/21 7/536/21 249/537/21
f 47/538/22 46/539/22 288/540/22
f 202/516/23 201/541/23 443/542/23
f 140/505/24 139/543/24 381/544/24
f 29/491/25 28/545/25 270/546/25
f 86/547/26 85/521/26 327/548/26
f 232/549/27 231/524/27 473/550/27
f 107/551/28 106/552/28 348/553/28
f 15/554/29 14/509/29 256/555/29
f 46/539/30 45/556/30 287/557/30
f 87/558/31 86/547/31 328/559/31
f 48/560/32 47/538/32 289/561/32
f 233/562/33 232/549/33 474/563/33
f 153/564/34 152/499/34 394/565/34
f 114/519/35 113/566/35 355/567/35
f 88/568/36 87/558/36 329/569/36
f 129/570/37 128/527/37 370/571/37
f 45/556/38 44/572/38 286/573/38
f 201/574/39 200/575/39 442/576/39
f 28/545/40 27/577/40 269/578/40
f 89/579/41 88/568/41 330/580/41
f 49/581/42 48/560/42 290/582/42
f 234/583/43 233/562/43 475/584/43
f 16/585/44 15/554/44 257/586/44
f 139/543/45 138/587/45 380/588/45
f 50/589/46 49/581/46 291/590/46
f 235/591/47 234/583/47 476/592/47
f 182/593/48 181/594/48 423/595/48
f 113/566/49 112/596/49 354/597/49
f 162/534/50 161/598/50 403/599/50
f 146/600/11 182/601/11 424/602/11
f 44/572/51 43/603/51 285/604/51
f 200/575/52 199/605/52 441/606/52
f 138/587/53 137/607/53 379/608/53
f 27/577/54 26/609/54 268/610/54
f 51/611/55 50/589/55 292/612/55
f 236/613/56 235/591/56 477/614/56
f 130/615/57 129/570/57 371/616/57
f 154/617/58 153/564/58 395/618/58
f 181/594/59 180/619/59 422/620/59
f 90/621/60 89/579/60 331/622/60
f 237/623/61 236/613/61 478/624/61
f 108/625/62 107/551/62 349/626/62
f 17/627/63 16/585/63 258/628/63
f 43/629/64 42/630/64 284/631/64
f 52/632/65 51/611/65 293/633/65
f 238/634/66 237/623/66 479/635/66
f 180/619/67 179/636/67 421/637/67
f 137/607/68 136/638/68 378/639/68
f 26/609/69 25/640/69 267/641/69
f 91/642/70 90/621/70 332/643/70
f 53/644/71 52/632/71 294/645/71
f 239/646/72 238/634/72 480/647/72
f 101/648/73 100/649/73 342/650/73
f 112/596/74 111/651/74 353/652/74
f 131/653/75 130/615/75 372/654/75
f 18/655/76 17/627/76 259/656/76
f 179/636/77 178/657/77 420/658/77
f 42/630/78 41/659/78 283/660/78
f 199/605/79 198/661/79 440/662/79
f 92/663/80 91/642/80 333/664/80
f 54/665/81 53/644/81 295/666/81
f 240/667/82 239/646/82 481/668/82
f 136/638/83 135/669/83 377/670/83
f 161/598/84 160/671/84 402/672/84
f 241/673/85 240/667/85 482/674/85
f 155/675/86 154/617/86 396/676/86
f 178/657/87 177/677/87 419/678/87
f 41/659/88 40/679/88 282/680/88
f 111/651/89 110/681/89 352/682/89
f 55/683/90 54/665/90 296/684/90
f 132/685/91 131/686/91 373/687/91
f 177/677/92 176/688/92 418/689/92
f 25/640/93 24/690/93 266/691/93
f 93/692/94 92/663/94 334/693/94
f 56/694/95 55/683/95 297/695/95
f 109/696/96 108/697/96 350/698/96
f 19/699/97 18/655/97 260/700/97
f 242/701/9 241/673/9 483/702/9
f 110/681/98 109/696/98 351/703/98
f 176/688/99 175/704/99 417/705/99
f 40/679/100 39/706/100 281/707/100
f 135/669/101 134/708/101 376/709/101
f 24/690/102 23/710/102 265/711/102
f 94/712/103 93/692/103 335/713/103
f 57/714/104 56/694/104 298/715/104
f 198/661/105 197/716/105 439/717/105
f 133/718/106 132/685/106 374/719/106
f 20/720/107 19/699/107 261/721/107
f 134/708/108 133/718/108 375/722/108
f 197/716/109 196/723/109 438/724/109
f 185/725/11 184/726/11 426/727/11
f 156/728/110 155/675/110 397/729/110
f 175/704/111 174/730/111 416/731/111
f 39/706/112 38/732/112 280/733/112
f 58/734/113 57/714/113 299/735/113
f 196/723/114 195/736/114 437/737/114
f 184/738/9 183/739/9 425/740/9
f 174/730/115 173/741/115 415/742/115
f 186/743/21 185/744/21 427/745/21
f 23/746/116 22/747/116 264/748/116
f 95/749/117 94/712/117 336/750/117
f 59/751/11 58/752/11 300/753/11
f 195/736/118 194/754/118 436/755/118
f 183/756/3 186/757/3 428/758/3
f 21/759/119 20/720/119 262/760/119
f 60/761/120 59/762/120 301/763/120
f 188/764/11 187/765/11 429/766/11
f 194/754/121 193/767/121 435/768/121
f 173/741/122 172/769/122 414/770/122
f 61/771/123 60/761/123 302/772/123
f 22/747/124 21/759/124 263/773/124
f 193/767/125 192/774/125 434/775/125
f 172/769/126 171/776/126 413/777/126
f 62/778/127 61/771/127 303/779/127
f 191/780/21 190/781/21 432/782/21
f 187/783/9 215/784/9 457/785/9
f 160/786/128 159/787/128 401/788/128
f 96/789/129 95/749/129 337/790/129
f 192/774/130 191/780/130 433/791/130
f 63/792/131 62/778/131 304/793/131
f 189/794/21 188/795/21 430/796/21
f 215/784/132 214/797/132 456/798/132
f 157/799/133 156/728/133 398/800/133
f 190/801/3 189/802/3 431/803/3
f 171/804/134 170/805/134 412/806/134
f 64/807/135 63/792/135 305/808/135
f 214/797/136 213/809/136 455/525/136
f 97/810/137 96/496/137 338/811/137
f 159/787/138 158/812/138 400/813/138
f 65/814/139 64/807/139 306/815/139
f 213/816/140 212/817/140 454/818/140
f 158/812/141 157/799/141 399/819/141
f 170/805/142 169/820/142 411/821/142
f 66/822/143 65/814/143 307/823/143
f 212/817/144 211/824/144 453/825/144
f 169/820/145 168/826/145 410/827/145
f 67/828/146 66/822/146 308/829/146
f 211/824/147 210/830/147 452/831/147
f 98/832/148 97/810/148 339/833/148
f 102/834/149 101/648/149 343/835/149
f 68/836/150 67/828/150 309/837/150
f 210/830/151 209/838/151 451/839/151
f 168/826/152 167/840/152 409/841/152
f 69/842/153 68/836/153 310/843/153
f 209/838/154 208/844/154 450/845/154
f 121/846/155 120/847/155 362/848/155
f 217/849/21 216/850/21 458/851/21
f 122/852/156 121/853/156 363/854/156
f 167/840/157 166/855/157 408/856/157
f 147/857/158 146/858/158 388/859/158
f 70/860/159 69/842/159 311/861/159
f 103/862/160 102/834/160 344/863/160
f 208/844/161 207/864/161 449/865/161
f 99/866/162 98/832/162 340/867/162
f 71/868/163 70/860/163 312/869/163
f 216/870/3 242/871/3 484/872/3
f 120/847/164 119/873/164 361/874/164
f 148/875/165 147/857/165 389/876/165
f 218/877/166 217/849/166 459/878/166
f 123/879/167 122/852/167 364/880/167
f 38/732/168 37/881/168 279/882/168
f 72/883/169 71/868/169 313/884/169
f 219/885/170 218/877/170 460/886/170
f 166/855/171 165/887/171 407/888/171
f 145/889/172 144/890/172 386/891/172
f 149/892/173 148/875/173 390/893/173
f 220/894/174 219/895/174 461/896/174
f 104/897/175 103/862/175 345/898/175
f 37/881/176 36/899/176 278/900/176
f 10/901/177 9/902/177 251/903/177
f 73/904/178 72/883/178 314/905/178
f 207/864/179 206/906/179 448/907/179
f 119/873/180 118/908/180 360/909/180
f 9/910/3 145/911/3 387/912/3
f 74/913/181 73/914/181 315/915/181
f 221/916/182 220/894/182 462/917/182
f 124/918/183 123/879/183 365/919/183
f 33/485/184 32/920/184 274/921/184
f 75/922/185 74/913/185 316/923/185
f 222/924/186 221/916/186 463/925/186
f 144/890/187 143/926/187 385/927/187
f 165/887/188 164/928/188 406/929/188
f 76/930/189 75/922/189 317/931/189
f 223/932/190 222/924/190 464/933/190
f 11/934/191 10/901/191 252/935/191
f 118/908/192 117/936/192 359/937/192
f 77/938/193 76/930/193 318/939/193
f 125/940/194 124/918/194 366/941/194
f 150/942/195 149/892/195 391/943/195
f 206/906/196 205/944/196 447/945/196
f 224/946/197 223/932/197 465/947/197
f 105/948/198 104/897/198 346/949/198
f 36/899/199 35/950/199 277/951/199
f 32/920/200 31/952/200 273/953/200
f 78/954/201 77/938/201 319/955/201
f 225/956/202 224/946/202 466/957/202
f 12/958/203 11/934/203 253/959/203
f 143/926/204 142/960/204 384/961/204
f 79/962/205 78/954/205 320/963/205
f 226/964/206 225/956/206 467/965/206
f 100/649/207 99/866/207 341/966/207
f 117/936/208 116/967/208 358/968/208
f 80/969/209 79/962/209 321/970/209
f 126/971/210 125/940/210 367/972/210
f 205/944/211 204/973/211 446/974/211
f 164/928/212 163/533/212 405/975/212
f 227/976/213 226/964/213 468/977/213
f 35/950/214 34/484/214 276/978/214
f 142/960/215 141/504/215 383/979/215
f 31/952/216 30/490/216 272/980/216
f 81/981/217 80/969/217 322/982/217
f 6/983/218 5/984/218 247/985/218
f 228/986/219 227/976/219 469/987/219
f 106/552/220 105/948/220 347/988/220
f 151/500/221 150/942/221 392/989/221
f 82/494/222 81/981/222 323/990/222
f 5/991/9 4/992/9 246/993/9
f 13/510/223 12/958/223 254/994/223
f 204/973/224 203/515/224 445/995/224
f 116/967/225 115/518/225 357/996/225
f 4/997/226 3/998/226 245/999/226
f 229/497/227 228/986/227 470/1000/227
f 127/528/228 126/971/228 368/1001/228
f 34/484/3 275/486/3 276/978/3
f 3/487/4 244/489/4 245/1002/4
f 30/490/5 271/492/5 272/980/5
f 83/493/6 324/495/6 325/508/6
f 230/496/7 471/498/7 472/811/7
f 152/499/8 393/501/8 394/565/8
f 2/488/9 243/503/9 244/489/9
f 141/504/10 382/506/10 383/979/10
f 84/507/11 325/508/11 326/1003/11
f 14/509/12 255/511/12 256/555/12
f 1/512/13 250/514/13 243/1004/13
f 203/515/14 444/517/14 445/995/14
f 115/518/15 356/520/15 357/996/15
f 85/521/16 326/523/16 327/548/16
f 231/524/17 472/526/17 473/550/17
f 128/527/18 369/529/18 370/571/18
f 7/530/19 248/532/19 249/1005/19
f 163/533/20 404/535/20 405/975/20
f 8/513/21 249/537/21 250/514/21
f 47/538/22 288/540/22 289/561/22
f 202/516/23 443/542/23 444/517/23
f 140/505/24 381/544/24 382/506/24
f 29/491/25 270/546/25 271/492/25
f 86/547/26 327/548/26 328/559/26
f 232/549/27 473/550/27 474/563/27
f 107/551/28 348/553/28 349/626/28
f 15/554/29 256/555/29 257/586/29
f 46/539/30 287/557/30 288/540/30
f 87/558/31 328/559/31 329/569/31
f 48/560/32 289/561/32 290/582/32
f 233/562/33 474/563/33 475/584/33
f 153/564/34 394/565/34 395/618/34
f 114/519/35 355/567/35 356/520/35
f 88/568/36 329/569/36 330/580/36
f 129/570/229 370/571/229 371/616/229
f 45/556/38 286/573/38 287/557/38
f 201/574/39 442/576/39 443/1006/39
f 28/545/40 269/578/40 270/546/40
f 89/579/41 330/580/41 331/622/41
f 49/581/42 290/582/42 291/590/42
f 234/583/43 475/584/43 476/592/43
f 16/585/44 257/586/44 258/628/44
f 139/543/45 380/588/45 381/544/45
f 50/589/46 291/590/46 292/612/46
f 235/591/47 476/592/47 477/614/47
f 182/593/48 423/595/48 424/1007/48
f 113/566/49 354/597/49 355/567/49
f 162/534/50 403/599/50 404/535/50
f 146/600/11 424/602/11 388/1008/11
f 44/572/51 285/604/51 286/573/51
f 200/575/52 441/606/52 442/576/52
f 138/587/53 379/608/53 380/588/53
f 27/577/230 268/610/230 269/578/230
f 51/611/55 292/612/55 293/633/55
f 236/613/56 477/614/56 478/624/56
f 130/615/57 371/616/57 372/654/57
f 154/617/58 395/618/58 396/676/58
f 181/594/59 422/620/59 423/595/59
f 90/621/60 331/622/60 332/643/60
f 237/623/61 478/624/61 479/635/61
f 108/625/62 349/626/62 350/1009/62
f 17/627/231 258/628/231 259/656/231
f 43/629/64 284/631/64 285/1010/64
f 52/632/65 293/633/65 294/645/65
f 238/634/66 479/635/66 480/647/66
f 180/619/67 421/637/67 422/620/67
f 137/607/68 378/639/68 379/608/68
f 26/609/232 267/641/232 268/610/232
f 91/642/70 332/643/70 333/664/70
f 53/644/71 294/645/71 295/666/71
f 239/646/72 480/647/72 481/668/72
f 101/648/73 342/650/73 343/835/73
f 112/596/74 353/652/74 354/597/74
f 131/653/75 372/654/75 373/1011/75
f 18/655/233 259/656/233 260/700/233
f 179/636/77 420/658/77 421/637/77
f 42/630/78 283/660/78 284/631/78
f 199/605/79 440/662/79 441/606/79
f 92/663/80 333/664/80 334/693/80
f 54/665/81 295/666/81 296/684/81
f 240/667/82 481/668/82 482/674/82
f 136/638/83 377/670/83 378/639/83
f 161/598/234 402/672/234 403/599/234
f 241/673/85 482/674/85 483/702/85
f 155/675/86 396/676/86 397/729/86
f 178/657/87 419/678/87 420/658/87
f 41/659/88 282/680/88 283/660/88
f 111/651/89 352/682/89 353/652/89
f 55/683/235 296/684/235 297/695/235
f 132/685/91 373/687/91 374/719/91
f 177/677/92 418/689/92 419/678/92
f 25/640/93 266/691/93 267/641/93
f 93/692/94 334/693/94 335/713/94
f 56/694/95 297/695/95 298/715/95
f 109/696/96 350/698/96 351/703/96
f 19/699/97 260/700/97 261/721/97
f 242/701/9 483/702/9 484/1012/9
f 110/681/98 351/703/98 352/682/98
f 176/688/99 417/705/99 418/689/99
f 40/679/100 281/707/100 282/680/100
f 135/669/101 376/709/101 377/670/101
f 24/690/102 265/711/102 266/691/102
f 94/712/103 335/713/103 336/750/103
f 57/714/104 298/715/104 299/735/104
f 198/661/105 439/717/105 440/662/105
f 133/718/106 374/719/106 375/722/106
f 20/720/107 261/721/107 262/760/107
f 134/708/108 375/722/108 376/709/108
f 197/716/109 438/724/109 439/717/109
f 185/725/11 426/727/11 427/1013/11
f 156/728/110 397/729/110 398/800/110
f 175/704/111 416/731/111 417/705/111
f 39/706/112 280/733/112 281/707/112
f 58/734/113 299/735/113 300/1014/113
f 196/723/114 437/737/114 438/724/114
f 184/738/9 425/740/9 426/1015/9
f 174/730/115 415/742/115 416/731/115
f 186/743/21 427/745/21 428/1016/21
f 23/746/116 264/748/116 265/1017/116
f 95/749/117 336/750/117 337/790/117
f 59/751/11 300/753/11 301/1018/11
f 195/736/118 436/755/118 437/737/118
f 183/756/3 428/758/3 425/1019/3
f 21/759/119 262/760/119 263/773/119
f 60/761/120 301/763/120 302/772/120
f 188/764/11 429/766/11 430/1020/11
f 194/754/121 435/768/121 436/755/121
f 173/741/122 414/770/122 415/742/122
f 61/771/123 302/772/123 303/779/123
f 22/747/124 263/773/124 264/748/124
f 193/767/125 434/775/125 435/768/125
f 172/769/126 413/777/126 414/770/126
f 62/778/127 303/779/127 304/793/127
f 191/780/21 432/782/21 433/791/21
f 187/783/9 457/785/9 429/1021/9
f 160/786/128 401/788/128 402/1022/128
f 96/789/129 337/790/129 338/801/129
f 192/774/130 433/791/130 434/775/130
f 63/792/131 304/793/131 305/808/131
f 189/794/21 430/796/21 431/1023/21
f 215/784/132 456/798/132 457/785/132
f 157/799/133 398/800/133 399/819/133
f 190/801/3 431/803/3 432/1024/3
f 171/804/134 412/806/134 413/1025/134
f 64/807/135 305/808/135 306/815/135
f 214/797/136 455/525/136 456/798/136
f 97/810/137 338/811/137 339/833/137
f 159/787/138 400/813/138 401/788/138
f 65/814/139 306/815/139 307/823/139
f 213/816/140 454/818/140 455/1026/140
f 158/812/141 399/819/141 400/813/141
f 170/805/142 411/821/142 412/806/142
f 66/822/143 307/823/143 308/829/143
f 212/817/144 453/825/144 454/818/144
f 169/820/145 410/827/145 411/821/145
f 67/828/146 308/829/146 309/837/146
f 211/824/147 452/831/147 453/825/147
f 98/832/148 339/833/148 340/867/148
f 102/834/149 343/835/149 344/863/149
f 68/836/150 309/837/150 310/843/150
f 210/830/151 451/839/151 452/831/151
f 168/826/152 409/841/152 410/827/152
f 69/842/153 310/843/153 311/861/153
f 209/838/154 450/845/154 451/839/154
f 121/846/155 362/848/155 363/1027/155
f 217/849/21 458/851/21 459/878/21
f 122/852/156 363/854/156 364/880/156
f 167/840/157 408/856/157 409/841/157
f 147/857/236 388/859/236 389/876/236
f 70/860/159 311/861/159 312/869/159
f 103/862/160 344/863/160 345/898/160
f 208/844/161 449/865/161 450/845/161
f 99/866/162 340/867/162 341/966/162
f 71/868/163 312/869/163 313/884/163
f 216/870/3 484/872/3 458/1028/3
f 120/847/164 361/874/164 362/848/164
f 148/875/165 389/876/165 390/893/165
f 218/877/166 459/878/166 460/886/166
f 123/879/167 364/880/167 365/919/167
f 38/732/237 279/882/237 280/733/237
f 72/883/169 313/884/169 314/905/169
f 219/885/170 460/886/170 461/1029/170
f 166/855/238 407/888/238 408/856/238
f 145/889/172 386/891/172 387/1030/172
f 149/892/239 390/893/239 391/943/239
f 220/894/174 461/896/174 462/917/174
f 104/897/175 345/898/175 346/949/175
f 37/881/176 278/900/176 279/882/176
f 10/901/177 251/903/177 252/935/177
f 73/904/178 314/905/178 315/1031/178
f 207/864/179 448/907/179 449/865/179
f 119/873/180 360/909/180 361/874/180
f 9/910/3 387/912/3 251/1032/3
f 74/913/181 315/915/181 316/923/181
f 221/916/182 462/917/182 463/925/182
f 124/918/183 365/919/183 366/941/183
f 33/485/240 274/921/240 275/486/240
f 75/922/185 316/923/185 317/931/185
f 222/924/186 463/925/186 464/933/186
f 144/890/187 385/927/187 386/891/187
f 165/887/188 406/929/188 407/888/188
f 76/930/189 317/931/189 318/939/189
f 223/932/190 464/933/190 465/947/190
f 11/934/241 252/935/241 253/959/241
f 118/908/192 359/937/192 360/909/192
f 77/938/193 318/939/193 319/955/193
f 125/940/194 366/941/194 367/972/194
f 150/942/195 391/943/195 392/989/195
f 206/906/196 447/945/196 448/907/196
f 224/946/197 465/947/197 466/957/197
f 105/948/198 346/949/198 347/988/198
f 36/899/199 277/951/199 278/900/199
f 32/920/200 273/953/200 274/921/200
f 78/954/201 319/955/201 320/963/201
f 225/956/202 466/957/202 467/965/202
f 12/958/203 253/959/203 254/994/203
f 143/926/204 384/961/204 385/927/204
f 79/962/205 320/963/205 321/970/205
f 226/964/206 467/965/206 468/977/206
f 100/649/242 341/966/242 342/650/242
f 117/936/208 358/968/208 359/937/208
f 80/969/209 321/970/209 322/982/209
f 126/971/243 367/972/243 368/1001/243
f 205/944/211 446/974/211 447/945/211
f 164/928/212 405/975/212 406/929/212
f 227/976/213 468/977/213 469/987/213
f 35/950/214 276/978/214 277/951/214
f 142/960/215 383/979/215 384/961/215
f 31/952/199 272/980/199 273/953/199
f 81/981/217 322/982/217 323/990/217
f 6/983/218 247/985/218 248/1033/218
f 228/986/219 469/987/219 470/1000/219
f 106/552/220 347/988/220 348/553/220
f 151/500/221 392/989/221 393/501/221
f 82/494/222 323/990/222 324/495/222
f 5/991/9 246/993/9 247/1034/9
f 13/510/244 254/994/244 255/511/244
f 204/973/224 445/995/224 446/974/224
f 116/967/225 357/996/225 358/968/225
f 4/997/226 245/999/226 246/1035/226
f 229/497/227 470/1000/227 471/498/227
f 127/528/228 368/1001/228 369/529/228
